<?xml version="1.0" encoding="UTF-8" standalone="no"?>
<!-- Created with Inkscape (http://www.inkscape.org/) -->

<svg
   xmlns:dc="http://purl.org/dc/elements/1.1/"
   xmlns:cc="http://creativecommons.org/ns#"
   xmlns:rdf="http://www.w3.org/1999/02/22-rdf-syntax-ns#"
   xmlns:svg="http://www.w3.org/2000/svg"
   xmlns="http://www.w3.org/2000/svg"
   xmlns:sodipodi="http://sodipodi.sourceforge.net/DTD/sodipodi-0.dtd"
   xmlns:inkscape="http://www.inkscape.org/namespaces/inkscape"
   id="svg7929"
   version="1.1"
   inkscape:version="0.48.4 r9939"
   width="2746"
   height="414"
   sodipodi:docname="Disorient_dot_logo_full.png">
  <metadata
     id="metadata7935">
    <rdf:RDF>
      <cc:Work
         rdf:about="">
        <dc:format>image/svg+xml</dc:format>
        <dc:type
           rdf:resource="http://purl.org/dc/dcmitype/StillImage" />
        <dc:title></dc:title>
      </cc:Work>
    </rdf:RDF>
  </metadata>
  <defs
     id="defs7933" />
  <sodipodi:namedview
     pagecolor="#ffffff"
     bordercolor="#666666"
     borderopacity="1"
     objecttolerance="10"
     gridtolerance="10"
     guidetolerance="10"
     inkscape:pageopacity="0"
     inkscape:pageshadow="2"
     inkscape:window-width="640"
     inkscape:window-height="480"
     id="namedview7931"
     showgrid="false"
     inkscape:zoom="0.71941684"
     inkscape:cx="1642.9156"
     inkscape:cy="150.40777"
     inkscape:window-x="0"
     inkscape:window-y="0"
     inkscape:window-maximized="0"
     inkscape:current-layer="svg7929" />
  <path
     style="fill:#000000"
     d="M 64.641297,329.10211 C 59.971513,326.02338 58.013178,322.15225 58.013178,316 c 0,-9.54401 5.442808,-14.98682 14.986822,-14.98682 9.544014,0 14.986822,5.44281 14.986822,14.98682 0,9.54401 -5.442808,14.98682 -14.986822,14.98682 -3.709991,0 -6.430383,-0.61339 -8.358703,-1.88471 z m 32,0 C 91.971513,326.02338 90.013178,322.15225 90.013178,316 c 0,-9.54401 5.442808,-14.98682 14.986822,-14.98682 9.54401,0 14.98682,5.44281 14.98682,14.98682 0,9.54401 -5.44281,14.98682 -14.98682,14.98682 -3.70999,0 -6.430383,-0.61339 -8.358703,-1.88471 z m 32.000003,0 c -4.66979,-3.07873 -6.62812,-6.94986 -6.62812,-13.10211 0,-9.54401 5.44281,-14.98682 14.98682,-14.98682 9.54401,0 14.98682,5.44281 14.98682,14.98682 0,9.54401 -5.44281,14.98682 -14.98682,14.98682 -3.70999,0 -6.43038,-0.61339 -8.3587,-1.88471 z m 32,0 c -4.66979,-3.07873 -6.62812,-6.94986 -6.62812,-13.10211 0,-9.54401 5.44281,-14.98682 14.98682,-14.98682 9.54401,0 14.98682,5.44281 14.98682,14.98682 0,9.54401 -5.44281,14.98682 -14.98682,14.98682 -3.70999,0 -6.43038,-0.61339 -8.3587,-1.88471 z m 32,0 c -4.66979,-3.07873 -6.62812,-6.94986 -6.62812,-13.10211 0,-9.54401 5.44281,-14.98682 14.98682,-14.98682 9.54401,0 14.98682,5.44281 14.98682,14.98682 0,9.54401 -5.44281,14.98682 -14.98682,14.98682 -3.70999,0 -6.43038,-0.61339 -8.3587,-1.88471 z m 32,0 c -4.66979,-3.07873 -6.62812,-6.94986 -6.62812,-13.10211 0,-9.54401 5.44281,-14.98682 14.98682,-14.98682 9.54401,0 14.98682,5.44281 14.98682,14.98682 0,9.54401 -5.44281,14.98682 -14.98682,14.98682 -3.70999,0 -6.43038,-0.61339 -8.3587,-1.88471 z m 32,0 c -4.66979,-3.07873 -6.62812,-6.94986 -6.62812,-13.10211 0,-9.54401 5.44281,-14.98682 14.98682,-14.98682 6.15225,0 10.02338,1.95833 13.10211,6.62812 2.56437,3.8896 2.56437,12.8278 0,16.7174 -3.07873,4.66979 -6.94986,6.62812 -13.10211,6.62812 -3.70999,0 -6.43038,-0.61339 -8.3587,-1.88471 z m 32,0 c -4.66979,-3.07873 -6.62812,-6.94986 -6.62812,-13.10211 0,-9.54401 5.44281,-14.98682 14.98682,-14.98682 6.15225,0 10.02338,1.95833 13.10211,6.62812 2.56437,3.8896 2.56437,12.8278 0,16.7174 -3.07873,4.66979 -6.94986,6.62812 -13.10211,6.62812 -3.70999,0 -6.43038,-0.61339 -8.3587,-1.88471 z m 32,0 c -4.66979,-3.07873 -6.62812,-6.94986 -6.62812,-13.10211 0,-9.54401 5.44281,-14.98682 14.98682,-14.98682 6.15225,0 10.02338,1.95833 13.10211,6.62812 2.56437,3.8896 2.56437,12.8278 0,16.7174 -3.07873,4.66979 -6.94986,6.62812 -13.10211,6.62812 -3.70999,0 -6.43038,-0.61339 -8.3587,-1.88471 z m 96,0 c -4.66979,-3.07873 -6.62812,-6.94986 -6.62812,-13.10211 0,-9.54401 5.44281,-14.98682 14.98682,-14.98682 6.15225,0 10.02338,1.95833 13.10211,6.62812 2.56437,3.8896 2.56437,12.8278 0,16.7174 -3.07873,4.66979 -6.94986,6.62812 -13.10211,6.62812 -3.70999,0 -6.43038,-0.61339 -8.3587,-1.88471 z m 32,0 c -4.66979,-3.07873 -6.62812,-6.94986 -6.62812,-13.10211 0,-9.54401 5.44281,-14.98682 14.98682,-14.98682 6.15225,0 10.02338,1.95833 13.10211,6.62812 2.56437,3.8896 2.56437,12.8278 0,16.7174 -3.07873,4.66979 -6.94986,6.62812 -13.10211,6.62812 -3.70999,0 -6.43038,-0.61339 -8.3587,-1.88471 z m 64,0 c -4.66979,-3.07873 -6.62812,-6.94986 -6.62812,-13.10211 0,-9.54401 5.44281,-14.98682 14.98682,-14.98682 9.54401,0 14.98682,5.44281 14.98682,14.98682 0,9.54401 -5.44281,14.98682 -14.98682,14.98682 -3.70999,0 -6.43038,-0.61339 -8.3587,-1.88471 z m 32,0 c -4.66979,-3.07873 -6.62812,-6.94986 -6.62812,-13.10211 0,-9.54401 5.44281,-14.98682 14.98682,-14.98682 9.54401,0 14.98682,5.44281 14.98682,14.98682 0,9.54401 -5.44281,14.98682 -14.98682,14.98682 -3.70999,0 -6.43038,-0.61339 -8.3587,-1.88471 z m 31.65725,-0.0616 c -4.29058,-2.61611 -6.29933,-6.84141 -6.29481,-13.24082 C 570.01049,306.2211 575.30095,301 585,301 c 9.78528,0 14.99252,5.20984 14.99252,15 0,6.45433 -2.39378,11.1219 -6.89864,13.45145 -4.26393,2.20496 -12.84961,1.99488 -16.79533,-0.41097 z m 32,0 c -4.29058,-2.61611 -6.29933,-6.84141 -6.29481,-13.24082 C 602.01049,306.2211 607.30095,301 617,301 c 9.78528,0 14.99252,5.20984 14.99252,15 0,6.45433 -2.39378,11.1219 -6.89864,13.45145 -4.26393,2.20496 -12.84961,1.99488 -16.79533,-0.41097 z m 32,0 c -4.29058,-2.61611 -6.29933,-6.84141 -6.29481,-13.24082 C 634.01049,306.2211 639.30095,301 649,301 c 9.78528,0 14.99252,5.20984 14.99252,15 0,6.45433 -2.39378,11.1219 -6.89864,13.45145 -4.26393,2.20496 -12.84961,1.99488 -16.79533,-0.41097 z m 32,0 c -4.29058,-2.61611 -6.29933,-6.84141 -6.29481,-13.24082 C 666.01049,306.2211 671.30095,301 681,301 c 9.78528,0 14.99252,5.20984 14.99252,15 0,6.45433 -2.39378,11.1219 -6.89864,13.45145 -4.26393,2.20496 -12.84961,1.99488 -16.79533,-0.41097 z m 32,0 c -4.29058,-2.61611 -6.29933,-6.84141 -6.29481,-13.24082 C 698.01049,306.2211 703.30095,301 713,301 c 9.78528,0 14.99252,5.20984 14.99252,15 0,6.45433 -2.39378,11.1219 -6.89864,13.45145 -4.26393,2.20496 -12.84961,1.99488 -16.79533,-0.41097 z m 32,0 c -4.29058,-2.61611 -6.29933,-6.84141 -6.29481,-13.24082 C 730.01049,306.2211 735.30095,301 745,301 c 9.78528,0 14.99252,5.20984 14.99252,15 0,6.45433 -2.39378,11.1219 -6.89864,13.45145 -4.26393,2.20496 -12.84961,1.99488 -16.79533,-0.41097 z m 32,0 c -4.29058,-2.61611 -6.29933,-6.84141 -6.29481,-13.24082 C 762.01049,306.2211 767.30095,301 777,301 c 9.78528,0 14.99252,5.20984 14.99252,15 0,6.45433 -2.39378,11.1219 -6.89864,13.45145 -4.26393,2.20496 -12.84961,1.99488 -16.79533,-0.41097 z m 128,0 c -4.29058,-2.61611 -6.29933,-6.84141 -6.29481,-13.24082 C 890.01049,306.2211 895.30095,301 905,301 c 9.78528,0 14.99252,5.20984 14.99252,15 0,6.45433 -2.39378,11.1219 -6.89864,13.45145 -4.26393,2.20496 -12.84961,1.99488 -16.79533,-0.41097 z m 32,0 c -4.29058,-2.61611 -6.29933,-6.84141 -6.29481,-13.24082 C 922.01049,306.2211 927.30095,301 937,301 c 9.78528,0 14.99252,5.20984 14.99252,15 0,6.45433 -2.39378,11.1219 -6.89864,13.45145 -4.26393,2.20496 -12.84961,1.99488 -16.79533,-0.41097 z m 32,0 c -4.29058,-2.61611 -6.29933,-6.84141 -6.29481,-13.24082 C 954.01049,306.2211 959.30095,301 969,301 c 9.78528,0 14.99252,5.20984 14.99252,15 0,6.45433 -2.39378,11.1219 -6.89864,13.45145 -4.26393,2.20496 -12.84961,1.99488 -16.79533,-0.41097 z m 32,0 c -4.29058,-2.61611 -6.29933,-6.84141 -6.29481,-13.24082 C 986.01049,306.2211 991.30095,301 1001,301 c 9.7853,0 14.9925,5.20984 14.9925,15 0,6.45433 -2.3938,11.1219 -6.8986,13.45145 -4.2639,2.20496 -12.84963,1.99488 -16.79535,-0.41097 z m 31.99995,0 c -4.2905,-2.61611 -6.2993,-6.84141 -6.2948,-13.24082 C 1018.0105,306.2211 1023.301,301 1033,301 c 9.7853,0 14.9925,5.20984 14.9925,15 0,6.45433 -2.3938,11.1219 -6.8986,13.45145 -4.2639,2.20496 -12.8496,1.99488 -16.7954,-0.41097 z m 32,0 c -4.2905,-2.61611 -6.2993,-6.84141 -6.2948,-13.24082 C 1050.0105,306.2211 1055.301,301 1065,301 c 9.7853,0 14.9925,5.20984 14.9925,15 0,6.45433 -2.3938,11.1219 -6.8986,13.45145 -4.2639,2.20496 -12.8496,1.99488 -16.7954,-0.41097 z m 32,0 c -4.2905,-2.61611 -6.2993,-6.84141 -6.2948,-13.24082 C 1082.0105,306.2211 1087.301,301 1097,301 c 9.7853,0 14.9925,5.20984 14.9925,15 0,6.45433 -2.3938,11.1219 -6.8986,13.45145 -4.2639,2.20496 -12.8496,1.99488 -16.7954,-0.41097 z m 32,0 c -4.2905,-2.61611 -6.2993,-6.84141 -6.2948,-13.24082 C 1114.0105,306.2211 1119.301,301 1129,301 c 9.7853,0 14.9925,5.20984 14.9925,15 0,6.45433 -2.3938,11.1219 -6.8986,13.45145 -4.2639,2.20496 -12.8496,1.99488 -16.7954,-0.41097 z m 96,0 c -4.2905,-2.61611 -6.2993,-6.84141 -6.2948,-13.24082 C 1210.0105,306.2211 1215.301,301 1225,301 c 9.7853,0 14.9925,5.20984 14.9925,15 0,6.45433 -2.3938,11.1219 -6.8986,13.45145 -4.2639,2.20496 -12.8496,1.99488 -16.7954,-0.41097 z m 32,0 c -4.2905,-2.61611 -6.2993,-6.84141 -6.2948,-13.24082 C 1242.0105,306.2211 1247.301,301 1257,301 c 9.7853,0 14.9925,5.20984 14.9925,15 0,6.45433 -2.3938,11.1219 -6.8986,13.45145 -4.2639,2.20496 -12.8496,1.99488 -16.7954,-0.41097 z m 224,0 c -4.2905,-2.61611 -6.2993,-6.84141 -6.2948,-13.24082 C 1466.0105,306.2211 1471.301,301 1481,301 c 9.7853,0 14.9925,5.20984 14.9925,15 0,6.45433 -2.3938,11.1219 -6.8986,13.45145 -4.2639,2.20496 -12.8496,1.99488 -16.7954,-0.41097 z m 32,0 c -4.2905,-2.61611 -6.2993,-6.84141 -6.2948,-13.24082 C 1498.0105,306.2211 1503.301,301 1513,301 c 9.7853,0 14.9925,5.20984 14.9925,15 0,6.45433 -2.3938,11.1219 -6.8986,13.45145 -4.2639,2.20496 -12.8496,1.99488 -16.7954,-0.41097 z m 64,0 c -4.2905,-2.61611 -6.2993,-6.84141 -6.2948,-13.24082 C 1562.0105,306.2211 1567.301,301 1577,301 c 9.7853,0 14.9925,5.20984 14.9925,15 0,6.45433 -2.3938,11.1219 -6.8986,13.45145 -4.2639,2.20496 -12.8496,1.99488 -16.7954,-0.41097 z m 32,0 c -4.2905,-2.61611 -6.2993,-6.84141 -6.2948,-13.24082 C 1594.0105,306.2211 1599.301,301 1609,301 c 9.7853,0 14.9925,5.20984 14.9925,15 0,6.45433 -2.3938,11.1219 -6.8986,13.45145 -4.2639,2.20496 -12.8496,1.99488 -16.7954,-0.41097 z m 96,0 c -4.2905,-2.61611 -6.2993,-6.84141 -6.2948,-13.24082 C 1690.0105,306.2211 1695.301,301 1705,301 c 9.7853,0 14.9925,5.20984 14.9925,15 0,6.45433 -2.3938,11.1219 -6.8986,13.45145 -4.2639,2.20496 -12.8496,1.99488 -16.7954,-0.41097 z m 32,0 c -4.2905,-2.61611 -6.2993,-6.84141 -6.2948,-13.24082 C 1722.0105,306.2211 1727.301,301 1737,301 c 9.7853,0 14.9925,5.20984 14.9925,15 0,6.45433 -2.3938,11.1219 -6.8986,13.45145 -4.2639,2.20496 -12.8496,1.99488 -16.7954,-0.41097 z m 32,0 c -4.2905,-2.61611 -6.2993,-6.84141 -6.2948,-13.24082 C 1754.0105,306.2211 1759.301,301 1769,301 c 9.7853,0 14.9925,5.20984 14.9925,15 0,6.45433 -2.3938,11.1219 -6.8986,13.45145 -4.2639,2.20496 -12.8496,1.99488 -16.7954,-0.41097 z m 32,0 c -4.2905,-2.61611 -6.2993,-6.84141 -6.2948,-13.24082 C 1786.0105,306.2211 1791.301,301 1801,301 c 9.7853,0 14.9925,5.20984 14.9925,15 0,6.45433 -2.3938,11.1219 -6.8986,13.45145 -4.2639,2.20496 -12.8496,1.99488 -16.7954,-0.41097 z m 32,0 c -4.2905,-2.61611 -6.2993,-6.84141 -6.2948,-13.24082 C 1818.0105,306.2211 1823.301,301 1833,301 c 9.7853,0 14.9925,5.20984 14.9925,15 0,6.45433 -2.3938,11.1219 -6.8986,13.45145 -4.2639,2.20496 -12.8496,1.99488 -16.7954,-0.41097 z m 32,0 c -4.2905,-2.61611 -6.2993,-6.84141 -6.2948,-13.24082 C 1850.0105,306.2211 1855.301,301 1865,301 c 9.7853,0 14.9925,5.20984 14.9925,15 0,6.45433 -2.3938,11.1219 -6.8986,13.45145 -4.2639,2.20496 -12.8496,1.99488 -16.7954,-0.41097 z m 32,0 c -4.2905,-2.61611 -6.2993,-6.84141 -6.2948,-13.24082 C 1882.0105,306.2211 1887.301,301 1897,301 c 9.7853,0 14.9925,5.20984 14.9925,15 0,6.45433 -2.3938,11.1219 -6.8986,13.45145 -4.2639,2.20496 -12.8496,1.99488 -16.7954,-0.41097 z m 32,0 c -4.2905,-2.61611 -6.2993,-6.84141 -6.2948,-13.24082 C 1914.0105,306.2211 1919.301,301 1929,301 c 9.7853,0 14.9925,5.20984 14.9925,15 0,6.45433 -2.3938,11.1219 -6.8986,13.45145 -4.2639,2.20496 -12.8496,1.99488 -16.7954,-0.41097 z m 96,0 c -4.2905,-2.61611 -6.2993,-6.84141 -6.2948,-13.24082 C 2010.0105,306.2211 2015.301,301 2025,301 c 9.7853,0 14.9925,5.20984 14.9925,15 0,6.45433 -2.3938,11.1219 -6.8986,13.45145 -4.2639,2.20496 -12.8496,1.99488 -16.7954,-0.41097 z m 32,0 c -4.2905,-2.61611 -6.2993,-6.84141 -6.2948,-13.24082 C 2042.0105,306.2211 2047.301,301 2057,301 c 9.7853,0 14.9925,5.20984 14.9925,15 0,6.45433 -2.3938,11.1219 -6.8986,13.45145 -4.2639,2.20496 -12.8496,1.99488 -16.7954,-0.41097 z m 224.3428,0.0616 c -4.6698,-3.07873 -6.6281,-6.94986 -6.6281,-13.10211 0,-9.54401 5.4428,-14.98682 14.9868,-14.98682 9.544,0 14.9868,5.44281 14.9868,14.98682 0,9.54401 -5.4428,14.98682 -14.9868,14.98682 -3.71,0 -6.4304,-0.61339 -8.3587,-1.88471 z m 32,0 c -4.6698,-3.07873 -6.6281,-6.94986 -6.6281,-13.10211 0,-9.54401 5.4428,-14.98682 14.9868,-14.98682 9.544,0 14.9868,5.44281 14.9868,14.98682 0,9.54401 -5.4428,14.98682 -14.9868,14.98682 -3.71,0 -6.4304,-0.61339 -8.3587,-1.88471 z m 192,0 c -4.6698,-3.07873 -6.6281,-6.94986 -6.6281,-13.10211 0,-9.54401 5.4428,-14.98682 14.9868,-14.98682 9.544,0 14.9868,5.44281 14.9868,14.98682 0,9.54401 -5.4428,14.98682 -14.9868,14.98682 -3.71,0 -6.4304,-0.61339 -8.3587,-1.88471 z m 32,0 c -4.6698,-3.07873 -6.6281,-6.94986 -6.6281,-13.10211 0,-9.54401 5.4428,-14.98682 14.9868,-14.98682 9.544,0 14.9868,5.44281 14.9868,14.98682 0,9.54401 -5.4428,14.98682 -14.9868,14.98682 -3.71,0 -6.4304,-0.61339 -8.3587,-1.88471 z m -2464.000003,-32 C 59.971513,294.02338 58.013178,290.15225 58.013178,284 c 0,-9.54401 5.442808,-14.98682 14.986822,-14.98682 9.544014,0 14.986822,5.44281 14.986822,14.98682 0,9.54401 -5.442808,14.98682 -14.986822,14.98682 -3.709991,0 -6.430383,-0.61339 -8.358703,-1.88471 z m 31.657252,-0.0616 C 92.00797,294.42437 89.999224,290.19907 90.003738,283.79966 90.010494,274.2211 95.30095,269 105,269 c 9.78528,0 14.99252,5.20984 14.99252,15 0,6.45433 -2.39378,11.1219 -6.89864,13.45145 -4.26393,2.20496 -12.84961,1.99488 -16.795331,-0.41097 z m 32.000001,0 c -4.29058,-2.61611 -6.29933,-6.84141 -6.29481,-13.24082 C 122.01049,274.2211 127.30095,269 137,269 c 9.78528,0 14.99252,5.20984 14.99252,15 0,6.45433 -2.39378,11.1219 -6.89864,13.45145 -4.26393,2.20496 -12.84961,1.99488 -16.79533,-0.41097 z m 32,0 c -4.29058,-2.61611 -6.29933,-6.84141 -6.29481,-13.24082 C 154.01049,274.2211 159.30095,269 169,269 c 9.78528,0 14.99252,5.20984 14.99252,15 0,6.45433 -2.39378,11.1219 -6.89864,13.45145 -4.26393,2.20496 -12.84961,1.99488 -16.79533,-0.41097 z m 32,0 c -4.29058,-2.61611 -6.29933,-6.84141 -6.29481,-13.24082 C 186.01049,274.2211 191.30095,269 201,269 c 9.78528,0 14.99252,5.20984 14.99252,15 0,6.45433 -2.39378,11.1219 -6.89864,13.45145 -4.26393,2.20496 -12.84961,1.99488 -16.79533,-0.41097 z m 32,0 c -4.29058,-2.61611 -6.29933,-6.84141 -6.29481,-13.24082 C 218.01049,274.2211 223.30095,269 233,269 c 9.78528,0 14.99252,5.20984 14.99252,15 0,6.45433 -2.39378,11.1219 -6.89864,13.45145 -4.26393,2.20496 -12.84961,1.99488 -16.79533,-0.41097 z m 32,0 c -4.29058,-2.61611 -6.29933,-6.84141 -6.29481,-13.24082 C 250.01049,274.2211 255.30095,269 265,269 c 9.78528,0 14.99252,5.20984 14.99252,15 0,6.45433 -2.39378,11.1219 -6.89864,13.45145 -4.26393,2.20496 -12.84961,1.99488 -16.79533,-0.41097 z m 32,0 c -4.29058,-2.61611 -6.29933,-6.84141 -6.29481,-13.24082 C 282.01049,274.2211 287.30095,269 297,269 c 9.78528,0 14.99252,5.20984 14.99252,15 0,6.45433 -2.39378,11.1219 -6.89864,13.45145 -4.26393,2.20496 -12.84961,1.99488 -16.79533,-0.41097 z m 32,0 c -4.29058,-2.61611 -6.29933,-6.84141 -6.29481,-13.24082 C 314.01049,274.2211 319.30095,269 329,269 c 9.78528,0 14.99252,5.20984 14.99252,15 0,6.45433 -2.39378,11.1219 -6.89864,13.45145 -4.26393,2.20496 -12.84961,1.99488 -16.79533,-0.41097 z m 32,0 c -4.29058,-2.61611 -6.29933,-6.84141 -6.29481,-13.24082 C 346.01049,274.2211 351.30095,269 361,269 c 9.78528,0 14.99252,5.20984 14.99252,15 0,6.45433 -2.39378,11.1219 -6.89864,13.45145 -4.26393,2.20496 -12.84961,1.99488 -16.79533,-0.41097 z m 64,0 c -4.29058,-2.61611 -6.29933,-6.84141 -6.29481,-13.24082 C 410.01049,274.2211 415.30095,269 425,269 c 9.78528,0 14.99252,5.20984 14.99252,15 0,6.45433 -2.39378,11.1219 -6.89864,13.45145 -4.26393,2.20496 -12.84961,1.99488 -16.79533,-0.41097 z m 32,0 c -4.29058,-2.61611 -6.29933,-6.84141 -6.29481,-13.24082 C 442.01049,274.2211 447.30095,269 457,269 c 9.78528,0 14.99252,5.20984 14.99252,15 0,6.45433 -2.39378,11.1219 -6.89864,13.45145 -4.26393,2.20496 -12.84961,1.99488 -16.79533,-0.41097 z m 64,0 c -4.29058,-2.61611 -6.29933,-6.84141 -6.29481,-13.24082 C 506.01049,274.2211 511.30095,269 521,269 c 9.78528,0 14.99252,5.20984 14.99252,15 0,6.45433 -2.39378,11.1219 -6.89864,13.45145 -4.26393,2.20496 -12.84961,1.99488 -16.79533,-0.41097 z m 32,0 c -4.29058,-2.61611 -6.29933,-6.84141 -6.29481,-13.24082 C 538.01049,274.2211 543.30095,269 553,269 c 9.78528,0 14.99252,5.20984 14.99252,15 0,6.45433 -2.39378,11.1219 -6.89864,13.45145 -4.26393,2.20496 -12.84961,1.99488 -16.79533,-0.41097 z m 32,0 c -4.29058,-2.61611 -6.29933,-6.84141 -6.29481,-13.24082 C 570.01049,274.2211 575.30095,269 585,269 c 9.78528,0 14.99252,5.20984 14.99252,15 0,6.45433 -2.39378,11.1219 -6.89864,13.45145 -4.26393,2.20496 -12.84961,1.99488 -16.79533,-0.41097 z m 32,0 c -4.29058,-2.61611 -6.29933,-6.84141 -6.29481,-13.24082 C 602.01049,274.2211 607.30095,269 617,269 c 9.78528,0 14.99252,5.20984 14.99252,15 0,6.45433 -2.39378,11.1219 -6.89864,13.45145 -4.26393,2.20496 -12.84961,1.99488 -16.79533,-0.41097 z m 32,0 c -4.29058,-2.61611 -6.29933,-6.84141 -6.29481,-13.24082 C 634.01049,274.2211 639.30095,269 649,269 c 9.78528,0 14.99252,5.20984 14.99252,15 0,6.45433 -2.39378,11.1219 -6.89864,13.45145 -4.26393,2.20496 -12.84961,1.99488 -16.79533,-0.41097 z m 32,0 c -4.29058,-2.61611 -6.29933,-6.84141 -6.29481,-13.24082 C 666.01049,274.2211 671.30095,269 681,269 c 9.78528,0 14.99252,5.20984 14.99252,15 0,6.45433 -2.39378,11.1219 -6.89864,13.45145 -4.26393,2.20496 -12.84961,1.99488 -16.79533,-0.41097 z m 32,0 c -4.29058,-2.61611 -6.29933,-6.84141 -6.29481,-13.24082 C 698.01049,274.2211 703.30095,269 713,269 c 9.78528,0 14.99252,5.20984 14.99252,15 0,6.45433 -2.39378,11.1219 -6.89864,13.45145 -4.26393,2.20496 -12.84961,1.99488 -16.79533,-0.41097 z m 32,0 c -4.29058,-2.61611 -6.29933,-6.84141 -6.29481,-13.24082 C 730.01049,274.2211 735.30095,269 745,269 c 9.78528,0 14.99252,5.20984 14.99252,15 0,6.45433 -2.39378,11.1219 -6.89864,13.45145 -4.26393,2.20496 -12.84961,1.99488 -16.79533,-0.41097 z m 32,0 c -4.29058,-2.61611 -6.29933,-6.84141 -6.29481,-13.24082 C 762.01049,274.2211 767.30095,269 777,269 c 9.78528,0 14.99252,5.20984 14.99252,15 0,6.45433 -2.39378,11.1219 -6.89864,13.45145 -4.26393,2.20496 -12.84961,1.99488 -16.79533,-0.41097 z m 32,0 c -4.29058,-2.61611 -6.29933,-6.84141 -6.29481,-13.24082 C 794.01049,274.2211 799.30095,269 809,269 c 9.78528,0 14.99252,5.20984 14.99252,15 0,6.45433 -2.39378,11.1219 -6.89864,13.45145 -4.26393,2.20496 -12.84961,1.99488 -16.79533,-0.41097 z m 64,0 c -4.29058,-2.61611 -6.29933,-6.84141 -6.29481,-13.24082 C 858.01049,274.2211 863.30095,269 873,269 c 9.78528,0 14.99252,5.20984 14.99252,15 0,6.45433 -2.39378,11.1219 -6.89864,13.45145 -4.26393,2.20496 -12.84961,1.99488 -16.79533,-0.41097 z m 32,0 c -4.29058,-2.61611 -6.29933,-6.84141 -6.29481,-13.24082 C 890.01049,274.2211 895.30095,269 905,269 c 9.78528,0 14.99252,5.20984 14.99252,15 0,6.45433 -2.39378,11.1219 -6.89864,13.45145 -4.26393,2.20496 -12.84961,1.99488 -16.79533,-0.41097 z m 32,0 c -4.29058,-2.61611 -6.29933,-6.84141 -6.29481,-13.24082 C 922.01049,274.2211 927.30095,269 937,269 c 9.78528,0 14.99252,5.20984 14.99252,15 0,6.45433 -2.39378,11.1219 -6.89864,13.45145 -4.26393,2.20496 -12.84961,1.99488 -16.79533,-0.41097 z m 32,0 c -4.29058,-2.61611 -6.29933,-6.84141 -6.29481,-13.24082 C 954.01049,274.2211 959.30095,269 969,269 c 9.78528,0 14.99252,5.20984 14.99252,15 0,6.45433 -2.39378,11.1219 -6.89864,13.45145 -4.26393,2.20496 -12.84961,1.99488 -16.79533,-0.41097 z m 32,0 c -4.29058,-2.61611 -6.29933,-6.84141 -6.29481,-13.24082 C 986.01049,274.2211 991.30095,269 1001,269 c 9.7853,0 14.9925,5.20984 14.9925,15 0,6.45433 -2.3938,11.1219 -6.8986,13.45145 -4.2639,2.20496 -12.84963,1.99488 -16.79535,-0.41097 z m 31.99995,0 c -4.2905,-2.61611 -6.2993,-6.84141 -6.2948,-13.24082 C 1018.0105,274.2211 1023.301,269 1033,269 c 9.7853,0 14.9925,5.20984 14.9925,15 0,6.45433 -2.3938,11.1219 -6.8986,13.45145 -4.2639,2.20496 -12.8496,1.99488 -16.7954,-0.41097 z m 32,0 c -4.2905,-2.61611 -6.2993,-6.84141 -6.2948,-13.24082 C 1050.0105,274.2211 1055.301,269 1065,269 c 9.7853,0 14.9925,5.20984 14.9925,15 0,6.45433 -2.3938,11.1219 -6.8986,13.45145 -4.2639,2.20496 -12.8496,1.99488 -16.7954,-0.41097 z m 32,0 c -4.2905,-2.61611 -6.2993,-6.84141 -6.2948,-13.24082 C 1082.0105,274.2211 1087.301,269 1097,269 c 9.7853,0 14.9925,5.20984 14.9925,15 0,6.45433 -2.3938,11.1219 -6.8986,13.45145 -4.2639,2.20496 -12.8496,1.99488 -16.7954,-0.41097 z m 32,0 c -4.2905,-2.61611 -6.2993,-6.84141 -6.2948,-13.24082 C 1114.0105,274.2211 1119.301,269 1129,269 c 9.7853,0 14.9925,5.20984 14.9925,15 0,6.45433 -2.3938,11.1219 -6.8986,13.45145 -4.2639,2.20496 -12.8496,1.99488 -16.7954,-0.41097 z m 32,0 c -4.2905,-2.61611 -6.2993,-6.84141 -6.2948,-13.24082 C 1146.0105,274.2211 1151.301,269 1161,269 c 9.7853,0 14.9925,5.20984 14.9925,15 0,6.45433 -2.3938,11.1219 -6.8986,13.45145 -4.2639,2.20496 -12.8496,1.99488 -16.7954,-0.41097 z m 64,0 c -4.2905,-2.61611 -6.2993,-6.84141 -6.2948,-13.24082 C 1210.0105,274.2211 1215.301,269 1225,269 c 9.7853,0 14.9925,5.20984 14.9925,15 0,6.45433 -2.3938,11.1219 -6.8986,13.45145 -4.2639,2.20496 -12.8496,1.99488 -16.7954,-0.41097 z m 32,0 c -4.2905,-2.61611 -6.2993,-6.84141 -6.2948,-13.24082 C 1242.0105,274.2211 1247.301,269 1257,269 c 9.7853,0 14.9925,5.20984 14.9925,15 0,6.45433 -2.3938,11.1219 -6.8986,13.45145 -4.2639,2.20496 -12.8496,1.99488 -16.7954,-0.41097 z m 192,0 c -4.2905,-2.61611 -6.2993,-6.84141 -6.2948,-13.24082 C 1434.0105,274.2211 1439.301,269 1449,269 c 9.7853,0 14.9925,5.20984 14.9925,15 0,6.45433 -2.3938,11.1219 -6.8986,13.45145 -4.2639,2.20496 -12.8496,1.99488 -16.7954,-0.41097 z m 32,0 c -4.2905,-2.61611 -6.2993,-6.84141 -6.2948,-13.24082 C 1466.0105,274.2211 1471.301,269 1481,269 c 9.7853,0 14.9925,5.20984 14.9925,15 0,6.45433 -2.3938,11.1219 -6.8986,13.45145 -4.2639,2.20496 -12.8496,1.99488 -16.7954,-0.41097 z m 32,0 c -4.2905,-2.61611 -6.2993,-6.84141 -6.2948,-13.24082 C 1498.0105,274.2211 1503.301,269 1513,269 c 9.7853,0 14.9925,5.20984 14.9925,15 0,6.45433 -2.3938,11.1219 -6.8986,13.45145 -4.2639,2.20496 -12.8496,1.99488 -16.7954,-0.41097 z m 64,0 c -4.2905,-2.61611 -6.2993,-6.84141 -6.2948,-13.24082 C 1562.0105,274.2211 1567.301,269 1577,269 c 9.7853,0 14.9925,5.20984 14.9925,15 0,6.45433 -2.3938,11.1219 -6.8986,13.45145 -4.2639,2.20496 -12.8496,1.99488 -16.7954,-0.41097 z m 32,0 c -4.2905,-2.61611 -6.2993,-6.84141 -6.2948,-13.24082 C 1594.0105,274.2211 1599.301,269 1609,269 c 9.7853,0 14.9925,5.20984 14.9925,15 0,6.45433 -2.3938,11.1219 -6.8986,13.45145 -4.2639,2.20496 -12.8496,1.99488 -16.7954,-0.41097 z m 64,0 c -4.2905,-2.61611 -6.2993,-6.84141 -6.2948,-13.24082 C 1658.0105,274.2211 1663.301,269 1673,269 c 9.7853,0 14.9925,5.20984 14.9925,15 0,6.45433 -2.3938,11.1219 -6.8986,13.45145 -4.2639,2.20496 -12.8496,1.99488 -16.7954,-0.41097 z m 32,0 c -4.2905,-2.61611 -6.2993,-6.84141 -6.2948,-13.24082 C 1690.0105,274.2211 1695.301,269 1705,269 c 9.7853,0 14.9925,5.20984 14.9925,15 0,6.45433 -2.3938,11.1219 -6.8986,13.45145 -4.2639,2.20496 -12.8496,1.99488 -16.7954,-0.41097 z m 32,0 c -4.2905,-2.61611 -6.2993,-6.84141 -6.2948,-13.24082 C 1722.0105,274.2211 1727.301,269 1737,269 c 9.7853,0 14.9925,5.20984 14.9925,15 0,6.45433 -2.3938,11.1219 -6.8986,13.45145 -4.2639,2.20496 -12.8496,1.99488 -16.7954,-0.41097 z m 32,0 c -4.2905,-2.61611 -6.2993,-6.84141 -6.2948,-13.24082 C 1754.0105,274.2211 1759.301,269 1769,269 c 9.7853,0 14.9925,5.20984 14.9925,15 0,6.45433 -2.3938,11.1219 -6.8986,13.45145 -4.2639,2.20496 -12.8496,1.99488 -16.7954,-0.41097 z m 32,0 c -4.2905,-2.61611 -6.2993,-6.84141 -6.2948,-13.24082 C 1786.0105,274.2211 1791.301,269 1801,269 c 9.7853,0 14.9925,5.20984 14.9925,15 0,6.45433 -2.3938,11.1219 -6.8986,13.45145 -4.2639,2.20496 -12.8496,1.99488 -16.7954,-0.41097 z m 32,0 c -4.2905,-2.61611 -6.2993,-6.84141 -6.2948,-13.24082 C 1818.0105,274.2211 1823.301,269 1833,269 c 9.7853,0 14.9925,5.20984 14.9925,15 0,6.45433 -2.3938,11.1219 -6.8986,13.45145 -4.2639,2.20496 -12.8496,1.99488 -16.7954,-0.41097 z m 32,0 c -4.2905,-2.61611 -6.2993,-6.84141 -6.2948,-13.24082 C 1850.0105,274.2211 1855.301,269 1865,269 c 9.7853,0 14.9925,5.20984 14.9925,15 0,6.45433 -2.3938,11.1219 -6.8986,13.45145 -4.2639,2.20496 -12.8496,1.99488 -16.7954,-0.41097 z m 32,0 c -4.2905,-2.61611 -6.2993,-6.84141 -6.2948,-13.24082 C 1882.0105,274.2211 1887.301,269 1897,269 c 9.7853,0 14.9925,5.20984 14.9925,15 0,6.45433 -2.3938,11.1219 -6.8986,13.45145 -4.2639,2.20496 -12.8496,1.99488 -16.7954,-0.41097 z m 32,0 c -4.2905,-2.61611 -6.2993,-6.84141 -6.2948,-13.24082 C 1914.0105,274.2211 1919.301,269 1929,269 c 9.7853,0 14.9925,5.20984 14.9925,15 0,6.45433 -2.3938,11.1219 -6.8986,13.45145 -4.2639,2.20496 -12.8496,1.99488 -16.7954,-0.41097 z m 96,0 c -4.2905,-2.61611 -6.2993,-6.84141 -6.2948,-13.24082 C 2010.0105,274.2211 2015.301,269 2025,269 c 9.7853,0 14.9925,5.20984 14.9925,15 0,6.45433 -2.3938,11.1219 -6.8986,13.45145 -4.2639,2.20496 -12.8496,1.99488 -16.7954,-0.41097 z m 32,0 c -4.2905,-2.61611 -6.2993,-6.84141 -6.2948,-13.24082 C 2042.0105,274.2211 2047.301,269 2057,269 c 9.7853,0 14.9925,5.20984 14.9925,15 0,6.45433 -2.3938,11.1219 -6.8986,13.45145 -4.2639,2.20496 -12.8496,1.99488 -16.7954,-0.41097 z m 224,0 c -4.2905,-2.61611 -6.2993,-6.84141 -6.2948,-13.24082 C 2266.0105,274.2211 2271.301,269 2281,269 c 9.7853,0 14.9925,5.20984 14.9925,15 0,6.45433 -2.3938,11.1219 -6.8986,13.45145 -4.2639,2.20496 -12.8496,1.99488 -16.7954,-0.41097 z m 32,0 c -4.2905,-2.61611 -6.2993,-6.84141 -6.2948,-13.24082 C 2298.0105,274.2211 2303.301,269 2313,269 c 9.7853,0 14.9925,5.20984 14.9925,15 0,6.45433 -2.3938,11.1219 -6.8986,13.45145 -4.2639,2.20496 -12.8496,1.99488 -16.7954,-0.41097 z m 192,0 c -4.2905,-2.61611 -6.2993,-6.84141 -6.2948,-13.24082 C 2490.0105,274.2211 2495.301,269 2505,269 c 9.7853,0 14.9925,5.20984 14.9925,15 0,6.45433 -2.3938,11.1219 -6.8986,13.45145 -4.2639,2.20496 -12.8496,1.99488 -16.7954,-0.41097 z m 32,0 c -4.2905,-2.61611 -6.2993,-6.84141 -6.2948,-13.24082 C 2522.0105,274.2211 2527.301,269 2537,269 c 9.7853,0 14.9925,5.20984 14.9925,15 0,6.45433 -2.3938,11.1219 -6.8986,13.45145 -4.2639,2.20496 -12.8496,1.99488 -16.7954,-0.41097 z M 64.641297,265.10211 C 59.971513,262.02338 58.013178,258.15225 58.013178,252 c 0,-9.54401 5.442808,-14.98682 14.986822,-14.98682 9.544014,0 14.986822,5.44281 14.986822,14.98682 0,9.54401 -5.442808,14.98682 -14.986822,14.98682 -3.709991,0 -6.430383,-0.61339 -8.358703,-1.88471 z m 32,0 C 91.971513,262.02338 90.013178,258.15225 90.013178,252 c 0,-9.54401 5.442808,-14.98682 14.986822,-14.98682 9.54401,0 14.98682,5.44281 14.98682,14.98682 0,9.54401 -5.44281,14.98682 -14.98682,14.98682 -3.70999,0 -6.430383,-0.61339 -8.358703,-1.88471 z m 224.000003,0 c -4.66979,-3.07873 -6.62812,-6.94986 -6.62812,-13.10211 0,-9.54401 5.44281,-14.98682 14.98682,-14.98682 9.54401,0 14.98682,5.44281 14.98682,14.98682 0,9.54401 -5.44281,14.98682 -14.98682,14.98682 -3.70999,0 -6.43038,-0.61339 -8.3587,-1.88471 z m 32,0 c -4.66979,-3.07873 -6.62812,-6.94986 -6.62812,-13.10211 0,-9.54401 5.44281,-14.98682 14.98682,-14.98682 9.54401,0 14.98682,5.44281 14.98682,14.98682 0,9.54401 -5.44281,14.98682 -14.98682,14.98682 -3.70999,0 -6.43038,-0.61339 -8.3587,-1.88471 z m 64,0 c -4.66979,-3.07873 -6.62812,-6.94986 -6.62812,-13.10211 0,-9.54401 5.44281,-14.98682 14.98682,-14.98682 9.54401,0 14.98682,5.44281 14.98682,14.98682 0,9.54401 -5.44281,14.98682 -14.98682,14.98682 -3.70999,0 -6.43038,-0.61339 -8.3587,-1.88471 z m 32,0 c -4.66979,-3.07873 -6.62812,-6.94986 -6.62812,-13.10211 0,-9.54401 5.44281,-14.98682 14.98682,-14.98682 9.54401,0 14.98682,5.44281 14.98682,14.98682 0,9.54401 -5.44281,14.98682 -14.98682,14.98682 -3.70999,0 -6.43038,-0.61339 -8.3587,-1.88471 z m 319.65725,-0.0616 c -4.29058,-2.61611 -6.29933,-6.84141 -6.29481,-13.24082 C 762.01049,242.2211 767.30095,237 777,237 c 9.78528,0 14.99252,5.20984 14.99252,15 0,6.45433 -2.39378,11.1219 -6.89864,13.45145 -4.26393,2.20496 -12.84961,1.99488 -16.79533,-0.41097 z m 32,0 c -4.29058,-2.61611 -6.29933,-6.84141 -6.29481,-13.24082 C 794.01049,242.2211 799.30095,237 809,237 c 9.78528,0 14.99252,5.20984 14.99252,15 0,6.45433 -2.39378,11.1219 -6.89864,13.45145 -4.26393,2.20496 -12.84961,1.99488 -16.79533,-0.41097 z m 64,0 c -4.29058,-2.61611 -6.29933,-6.84141 -6.29481,-13.24082 C 858.01049,242.2211 863.30095,237 873,237 c 9.78528,0 14.99252,5.20984 14.99252,15 0,6.45433 -2.39378,11.1219 -6.89864,13.45145 -4.26393,2.20496 -12.84961,1.99488 -16.79533,-0.41097 z m 32,0 c -4.29058,-2.61611 -6.29933,-6.84141 -6.29481,-13.24082 C 890.01049,242.2211 895.30095,237 905,237 c 9.78528,0 14.99252,5.20984 14.99252,15 0,6.45433 -2.39378,11.1219 -6.89864,13.45145 -4.26393,2.20496 -12.84961,1.99488 -16.79533,-0.41097 z m 223.99995,0 c -4.2905,-2.61611 -6.2993,-6.84141 -6.2948,-13.24082 C 1114.0105,242.2211 1119.301,237 1129,237 c 9.7853,0 14.9925,5.20984 14.9925,15 0,6.45433 -2.3938,11.1219 -6.8986,13.45145 -4.2639,2.20496 -12.8496,1.99488 -16.7954,-0.41097 z m 32,0 c -4.2905,-2.61611 -6.2993,-6.84141 -6.2948,-13.24082 C 1146.0105,242.2211 1151.301,237 1161,237 c 9.7853,0 14.9925,5.20984 14.9925,15 0,6.45433 -2.3938,11.1219 -6.8986,13.45145 -4.2639,2.20496 -12.8496,1.99488 -16.7954,-0.41097 z m 64,0 c -4.2905,-2.61611 -6.2993,-6.84141 -6.2948,-13.24082 C 1210.0105,242.2211 1215.301,237 1225,237 c 9.7853,0 14.9925,5.20984 14.9925,15 0,6.45433 -2.3938,11.1219 -6.8986,13.45145 -4.2639,2.20496 -12.8496,1.99488 -16.7954,-0.41097 z m 32,0 c -4.2905,-2.61611 -6.2993,-6.84141 -6.2948,-13.24082 C 1242.0105,242.2211 1247.301,237 1257,237 c 9.7853,0 14.9925,5.20984 14.9925,15 0,6.45433 -2.3938,11.1219 -6.8986,13.45145 -4.2639,2.20496 -12.8496,1.99488 -16.7954,-0.41097 z m 32,0 c -4.2905,-2.61611 -6.2993,-6.84141 -6.2948,-13.24082 C 1274.0105,242.2211 1279.301,237 1289,237 c 9.7853,0 14.9925,5.20984 14.9925,15 0,6.45433 -2.3938,11.1219 -6.8986,13.45145 -4.2639,2.20496 -12.8496,1.99488 -16.7954,-0.41097 z m 32,0 c -4.2905,-2.61611 -6.2993,-6.84141 -6.2948,-13.24082 C 1306.0105,242.2211 1311.301,237 1321,237 c 9.7853,0 14.9925,5.20984 14.9925,15 0,6.45433 -2.3938,11.1219 -6.8986,13.45145 -4.2639,2.20496 -12.8496,1.99488 -16.7954,-0.41097 z m 32,0 c -4.2905,-2.61611 -6.2993,-6.84141 -6.2948,-13.24082 C 1338.0105,242.2211 1343.301,237 1353,237 c 9.7853,0 14.9925,5.20984 14.9925,15 0,6.45433 -2.3938,11.1219 -6.8986,13.45145 -4.2639,2.20496 -12.8496,1.99488 -16.7954,-0.41097 z m 32,0 c -4.2905,-2.61611 -6.2993,-6.84141 -6.2948,-13.24082 C 1370.0105,242.2211 1375.301,237 1385,237 c 9.7853,0 14.9925,5.20984 14.9925,15 0,6.45433 -2.3938,11.1219 -6.8986,13.45145 -4.2639,2.20496 -12.8496,1.99488 -16.7954,-0.41097 z m 32,0 c -4.2905,-2.61611 -6.2993,-6.84141 -6.2948,-13.24082 C 1402.0105,242.2211 1407.301,237 1417,237 c 9.7853,0 14.9925,5.20984 14.9925,15 0,6.45433 -2.3938,11.1219 -6.8986,13.45145 -4.2639,2.20496 -12.8496,1.99488 -16.7954,-0.41097 z m 32,0 c -4.2905,-2.61611 -6.2993,-6.84141 -6.2948,-13.24082 C 1434.0105,242.2211 1439.301,237 1449,237 c 9.7853,0 14.9925,5.20984 14.9925,15 0,6.45433 -2.3938,11.1219 -6.8986,13.45145 -4.2639,2.20496 -12.8496,1.99488 -16.7954,-0.41097 z m 32,0 c -4.2905,-2.61611 -6.2993,-6.84141 -6.2948,-13.24082 C 1466.0105,242.2211 1471.301,237 1481,237 c 9.7853,0 14.9925,5.20984 14.9925,15 0,6.45433 -2.3938,11.1219 -6.8986,13.45145 -4.2639,2.20496 -12.8496,1.99488 -16.7954,-0.41097 z m 96,0 c -4.2905,-2.61611 -6.2993,-6.84141 -6.2948,-13.24082 C 1562.0105,242.2211 1567.301,237 1577,237 c 9.7853,0 14.9925,5.20984 14.9925,15 0,6.45433 -2.3938,11.1219 -6.8986,13.45145 -4.2639,2.20496 -12.8496,1.99488 -16.7954,-0.41097 z m 32,0 c -4.2905,-2.61611 -6.2993,-6.84141 -6.2948,-13.24082 C 1594.0105,242.2211 1599.301,237 1609,237 c 9.7853,0 14.9925,5.20984 14.9925,15 0,6.45433 -2.3938,11.1219 -6.8986,13.45145 -4.2639,2.20496 -12.8496,1.99488 -16.7954,-0.41097 z m 64,0 c -4.2905,-2.61611 -6.2993,-6.84141 -6.2948,-13.24082 C 1658.0105,242.2211 1663.301,237 1673,237 c 9.7853,0 14.9925,5.20984 14.9925,15 0,6.45433 -2.3938,11.1219 -6.8986,13.45145 -4.2639,2.20496 -12.8496,1.99488 -16.7954,-0.41097 z m 32,0 c -4.2905,-2.61611 -6.2993,-6.84141 -6.2948,-13.24082 C 1690.0105,242.2211 1695.301,237 1705,237 c 9.7853,0 14.9925,5.20984 14.9925,15 0,6.45433 -2.3938,11.1219 -6.8986,13.45145 -4.2639,2.20496 -12.8496,1.99488 -16.7954,-0.41097 z m 320,0 c -4.2905,-2.61611 -6.2993,-6.84141 -6.2948,-13.24082 C 2010.0105,242.2211 2015.301,237 2025,237 c 9.7853,0 14.9925,5.20984 14.9925,15 0,6.45433 -2.3938,11.1219 -6.8986,13.45145 -4.2639,2.20496 -12.8496,1.99488 -16.7954,-0.41097 z m 32,0 c -4.2905,-2.61611 -6.2993,-6.84141 -6.2948,-13.24082 C 2042.0105,242.2211 2047.301,237 2057,237 c 9.7853,0 14.9925,5.20984 14.9925,15 0,6.45433 -2.3938,11.1219 -6.8986,13.45145 -4.2639,2.20496 -12.8496,1.99488 -16.7954,-0.41097 z m 224.3428,0.0616 c -4.6698,-3.07873 -6.6281,-6.94986 -6.6281,-13.10211 0,-9.54401 5.4428,-14.98682 14.9868,-14.98682 9.544,0 14.9868,5.44281 14.9868,14.98682 0,9.54401 -5.4428,14.98682 -14.9868,14.98682 -3.71,0 -6.4304,-0.61339 -8.3587,-1.88471 z m 32,0 c -4.6698,-3.07873 -6.6281,-6.94986 -6.6281,-13.10211 0,-9.54401 5.4428,-14.98682 14.9868,-14.98682 9.544,0 14.9868,5.44281 14.9868,14.98682 0,9.54401 -5.4428,14.98682 -14.9868,14.98682 -3.71,0 -6.4304,-0.61339 -8.3587,-1.88471 z m 192,0 c -4.6698,-3.07873 -6.6281,-6.94986 -6.6281,-13.10211 0,-9.54401 5.4428,-14.98682 14.9868,-14.98682 9.544,0 14.9868,5.44281 14.9868,14.98682 0,9.54401 -5.4428,14.98682 -14.9868,14.98682 -3.71,0 -6.4304,-0.61339 -8.3587,-1.88471 z m 32,0 c -4.6698,-3.07873 -6.6281,-6.94986 -6.6281,-13.10211 0,-9.54401 5.4428,-14.98682 14.9868,-14.98682 9.544,0 14.9868,5.44281 14.9868,14.98682 0,9.54401 -5.4428,14.98682 -14.9868,14.98682 -3.71,0 -6.4304,-0.61339 -8.3587,-1.88471 z m -2464.000003,-32 C 59.971513,230.02338 58.013178,226.15225 58.013178,220 c 0,-9.54401 5.442808,-14.98682 14.986822,-14.98682 9.544014,0 14.986822,5.44281 14.986822,14.98682 0,9.54401 -5.442808,14.98682 -14.986822,14.98682 -3.709991,0 -6.430383,-0.61339 -8.358703,-1.88471 z m 32,0 C 91.971513,230.02338 90.013178,226.15225 90.013178,220 c 0,-9.54401 5.442808,-14.98682 14.986822,-14.98682 9.54401,0 14.98682,5.44281 14.98682,14.98682 0,9.54401 -5.44281,14.98682 -14.98682,14.98682 -3.70999,0 -6.430383,-0.61339 -8.358703,-1.88471 z m 224.000003,0 c -4.66979,-3.07873 -6.62812,-6.94986 -6.62812,-13.10211 0,-9.54401 5.44281,-14.98682 14.98682,-14.98682 9.54401,0 14.98682,5.44281 14.98682,14.98682 0,9.54401 -5.44281,14.98682 -14.98682,14.98682 -3.70999,0 -6.43038,-0.61339 -8.3587,-1.88471 z m 32,0 c -4.66979,-3.07873 -6.62812,-6.94986 -6.62812,-13.10211 0,-9.54401 5.44281,-14.98682 14.98682,-14.98682 9.54401,0 14.98682,5.44281 14.98682,14.98682 0,9.54401 -5.44281,14.98682 -14.98682,14.98682 -3.70999,0 -6.43038,-0.61339 -8.3587,-1.88471 z m 64,0 c -4.66979,-3.07873 -6.62812,-6.94986 -6.62812,-13.10211 0,-9.54401 5.44281,-14.98682 14.98682,-14.98682 9.54401,0 14.98682,5.44281 14.98682,14.98682 0,9.54401 -5.44281,14.98682 -14.98682,14.98682 -3.70999,0 -6.43038,-0.61339 -8.3587,-1.88471 z m 32,0 c -4.66979,-3.07873 -6.62812,-6.94986 -6.62812,-13.10211 0,-9.54401 5.44281,-14.98682 14.98682,-14.98682 9.54401,0 14.98682,5.44281 14.98682,14.98682 0,9.54401 -5.44281,14.98682 -14.98682,14.98682 -3.70999,0 -6.43038,-0.61339 -8.3587,-1.88471 z m 96,0 c -4.66979,-3.07873 -6.62812,-6.94986 -6.62812,-13.10211 0,-9.54401 5.44281,-14.98682 14.98682,-14.98682 9.54401,0 14.98682,5.44281 14.98682,14.98682 0,9.54401 -5.44281,14.98682 -14.98682,14.98682 -3.70999,0 -6.43038,-0.61339 -8.3587,-1.88471 z m 31.65725,-0.0616 c -4.29058,-2.61611 -6.29933,-6.84141 -6.29481,-13.24082 C 570.01049,210.2211 575.30095,205 585,205 c 9.78528,0 14.99252,5.20984 14.99252,15 0,6.45433 -2.39378,11.1219 -6.89864,13.45145 -4.26393,2.20496 -12.84961,1.99488 -16.79533,-0.41097 z m 32,0 c -4.29058,-2.61611 -6.29933,-6.84141 -6.29481,-13.24082 C 602.01049,210.2211 607.30095,205 617,205 c 9.78528,0 14.99252,5.20984 14.99252,15 0,6.45433 -2.39378,11.1219 -6.89864,13.45145 -4.26393,2.20496 -12.84961,1.99488 -16.79533,-0.41097 z m 32,0 c -4.29058,-2.61611 -6.29933,-6.84141 -6.29481,-13.24082 C 634.01049,210.2211 639.30095,205 649,205 c 9.78528,0 14.99252,5.20984 14.99252,15 0,6.45433 -2.39378,11.1219 -6.89864,13.45145 -4.26393,2.20496 -12.84961,1.99488 -16.79533,-0.41097 z m 32,0 c -4.29058,-2.61611 -6.29933,-6.84141 -6.29481,-13.24082 C 666.01049,210.2211 671.30095,205 681,205 c 9.78528,0 14.99252,5.20984 14.99252,15 0,6.45433 -2.39378,11.1219 -6.89864,13.45145 -4.26393,2.20496 -12.84961,1.99488 -16.79533,-0.41097 z m 32,0 c -4.29058,-2.61611 -6.29933,-6.84141 -6.29481,-13.24082 C 698.01049,210.2211 703.30095,205 713,205 c 9.78528,0 14.99252,5.20984 14.99252,15 0,6.45433 -2.39378,11.1219 -6.89864,13.45145 -4.26393,2.20496 -12.84961,1.99488 -16.79533,-0.41097 z m 32,0 c -4.29058,-2.61611 -6.29933,-6.84141 -6.29481,-13.24082 C 730.01049,210.2211 735.30095,205 745,205 c 9.78528,0 14.99252,5.20984 14.99252,15 0,6.45433 -2.39378,11.1219 -6.89864,13.45145 -4.26393,2.20496 -12.84961,1.99488 -16.79533,-0.41097 z m 32,0 c -4.29058,-2.61611 -6.29933,-6.84141 -6.29481,-13.24082 C 762.01049,210.2211 767.30095,205 777,205 c 9.78528,0 14.99252,5.20984 14.99252,15 0,6.45433 -2.39378,11.1219 -6.89864,13.45145 -4.26393,2.20496 -12.84961,1.99488 -16.79533,-0.41097 z m 32,0 c -4.29058,-2.61611 -6.29933,-6.84141 -6.29481,-13.24082 C 794.01049,210.2211 799.30095,205 809,205 c 9.78528,0 14.99252,5.20984 14.99252,15 0,6.45433 -2.39378,11.1219 -6.89864,13.45145 -4.26393,2.20496 -12.84961,1.99488 -16.79533,-0.41097 z m 64,0 c -4.29058,-2.61611 -6.29933,-6.84141 -6.29481,-13.24082 C 858.01049,210.2211 863.30095,205 873,205 c 9.78528,0 14.99252,5.20984 14.99252,15 0,6.45433 -2.39378,11.1219 -6.89864,13.45145 -4.26393,2.20496 -12.84961,1.99488 -16.79533,-0.41097 z m 32,0 c -4.29058,-2.61611 -6.29933,-6.84141 -6.29481,-13.24082 C 890.01049,210.2211 895.30095,205 905,205 c 9.78528,0 14.99252,5.20984 14.99252,15 0,6.45433 -2.39378,11.1219 -6.89864,13.45145 -4.26393,2.20496 -12.84961,1.99488 -16.79533,-0.41097 z m 223.99995,0 c -4.2905,-2.61611 -6.2993,-6.84141 -6.2948,-13.24082 C 1114.0105,210.2211 1119.301,205 1129,205 c 9.7853,0 14.9925,5.20984 14.9925,15 0,6.45433 -2.3938,11.1219 -6.8986,13.45145 -4.2639,2.20496 -12.8496,1.99488 -16.7954,-0.41097 z m 32,0 c -4.2905,-2.61611 -6.2993,-6.84141 -6.2948,-13.24082 C 1146.0105,210.2211 1151.301,205 1161,205 c 9.7853,0 14.9925,5.20984 14.9925,15 0,6.45433 -2.3938,11.1219 -6.8986,13.45145 -4.2639,2.20496 -12.8496,1.99488 -16.7954,-0.41097 z m 64,0 c -4.2905,-2.61611 -6.2993,-6.84141 -6.2948,-13.24082 C 1210.0105,210.2211 1215.301,205 1225,205 c 9.7853,0 14.9925,5.20984 14.9925,15 0,6.45433 -2.3938,11.1219 -6.8986,13.45145 -4.2639,2.20496 -12.8496,1.99488 -16.7954,-0.41097 z m 32,0 c -4.2905,-2.61611 -6.2993,-6.84141 -6.2948,-13.24082 C 1242.0105,210.2211 1247.301,205 1257,205 c 9.7853,0 14.9925,5.20984 14.9925,15 0,6.45433 -2.3938,11.1219 -6.8986,13.45145 -4.2639,2.20496 -12.8496,1.99488 -16.7954,-0.41097 z m 32,0 c -4.2905,-2.61611 -6.2993,-6.84141 -6.2948,-13.24082 C 1274.0105,210.2211 1279.301,205 1289,205 c 9.7853,0 14.9925,5.20984 14.9925,15 0,6.45433 -2.3938,11.1219 -6.8986,13.45145 -4.2639,2.20496 -12.8496,1.99488 -16.7954,-0.41097 z m 32,0 c -4.2905,-2.61611 -6.2993,-6.84141 -6.2948,-13.24082 C 1306.0105,210.2211 1311.301,205 1321,205 c 9.7853,0 14.9925,5.20984 14.9925,15 0,6.45433 -2.3938,11.1219 -6.8986,13.45145 -4.2639,2.20496 -12.8496,1.99488 -16.7954,-0.41097 z m 32,0 c -4.2905,-2.61611 -6.2993,-6.84141 -6.2948,-13.24082 C 1338.0105,210.2211 1343.301,205 1353,205 c 9.7853,0 14.9925,5.20984 14.9925,15 0,6.45433 -2.3938,11.1219 -6.8986,13.45145 -4.2639,2.20496 -12.8496,1.99488 -16.7954,-0.41097 z m 32,0 c -4.2905,-2.61611 -6.2993,-6.84141 -6.2948,-13.24082 C 1370.0105,210.2211 1375.301,205 1385,205 c 9.7853,0 14.9925,5.20984 14.9925,15 0,6.45433 -2.3938,11.1219 -6.8986,13.45145 -4.2639,2.20496 -12.8496,1.99488 -16.7954,-0.41097 z m 32,0 c -4.2905,-2.61611 -6.2993,-6.84141 -6.2948,-13.24082 C 1402.0105,210.2211 1407.301,205 1417,205 c 9.7853,0 14.9925,5.20984 14.9925,15 0,6.45433 -2.3938,11.1219 -6.8986,13.45145 -4.2639,2.20496 -12.8496,1.99488 -16.7954,-0.41097 z m 32,0 c -4.2905,-2.61611 -6.2993,-6.84141 -6.2948,-13.24082 C 1434.0105,210.2211 1439.301,205 1449,205 c 9.7853,0 14.9925,5.20984 14.9925,15 0,6.45433 -2.3938,11.1219 -6.8986,13.45145 -4.2639,2.20496 -12.8496,1.99488 -16.7954,-0.41097 z m 32,0 c -4.2905,-2.61611 -6.2993,-6.84141 -6.2948,-13.24082 C 1466.0105,210.2211 1471.301,205 1481,205 c 9.7853,0 14.9925,5.20984 14.9925,15 0,6.45433 -2.3938,11.1219 -6.8986,13.45145 -4.2639,2.20496 -12.8496,1.99488 -16.7954,-0.41097 z m 96,0 c -4.2905,-2.61611 -6.2993,-6.84141 -6.2948,-13.24082 C 1562.0105,210.2211 1567.301,205 1577,205 c 9.7853,0 14.9925,5.20984 14.9925,15 0,6.45433 -2.3938,11.1219 -6.8986,13.45145 -4.2639,2.20496 -12.8496,1.99488 -16.7954,-0.41097 z m 32,0 c -4.2905,-2.61611 -6.2993,-6.84141 -6.2948,-13.24082 C 1594.0105,210.2211 1599.301,205 1609,205 c 9.7853,0 14.9925,5.20984 14.9925,15 0,6.45433 -2.3938,11.1219 -6.8986,13.45145 -4.2639,2.20496 -12.8496,1.99488 -16.7954,-0.41097 z m 64,0 c -4.2905,-2.61611 -6.2993,-6.84141 -6.2948,-13.24082 C 1658.0105,210.2211 1663.301,205 1673,205 c 9.7853,0 14.9925,5.20984 14.9925,15 0,6.45433 -2.3938,11.1219 -6.8986,13.45145 -4.2639,2.20496 -12.8496,1.99488 -16.7954,-0.41097 z m 32,0 c -4.2905,-2.61611 -6.2993,-6.84141 -6.2948,-13.24082 C 1690.0105,210.2211 1695.301,205 1705,205 c 9.7853,0 14.9925,5.20984 14.9925,15 0,6.45433 -2.3938,11.1219 -6.8986,13.45145 -4.2639,2.20496 -12.8496,1.99488 -16.7954,-0.41097 z m 32,0 c -4.2905,-2.61611 -6.2993,-6.84141 -6.2948,-13.24082 C 1722.0105,210.2211 1727.301,205 1737,205 c 9.7853,0 14.9925,5.20984 14.9925,15 0,6.45433 -2.3938,11.1219 -6.8986,13.45145 -4.2639,2.20496 -12.8496,1.99488 -16.7954,-0.41097 z m 32,0 c -4.2905,-2.61611 -6.2993,-6.84141 -6.2948,-13.24082 C 1754.0105,210.2211 1759.301,205 1769,205 c 9.7853,0 14.9925,5.20984 14.9925,15 0,6.45433 -2.3938,11.1219 -6.8986,13.45145 -4.2639,2.20496 -12.8496,1.99488 -16.7954,-0.41097 z m 32,0 c -4.2905,-2.61611 -6.2993,-6.84141 -6.2948,-13.24082 C 1786.0105,210.2211 1791.301,205 1801,205 c 9.7853,0 14.9925,5.20984 14.9925,15 0,6.45433 -2.3938,11.1219 -6.8986,13.45145 -4.2639,2.20496 -12.8496,1.99488 -16.7954,-0.41097 z m 32,0 c -4.2905,-2.61611 -6.2993,-6.84141 -6.2948,-13.24082 C 1818.0105,210.2211 1823.301,205 1833,205 c 9.7853,0 14.9925,5.20984 14.9925,15 0,6.45433 -2.3938,11.1219 -6.8986,13.45145 -4.2639,2.20496 -12.8496,1.99488 -16.7954,-0.41097 z m 32,0 c -4.2905,-2.61611 -6.2993,-6.84141 -6.2948,-13.24082 C 1850.0105,210.2211 1855.301,205 1865,205 c 9.7853,0 14.9925,5.20984 14.9925,15 0,6.45433 -2.3938,11.1219 -6.8986,13.45145 -4.2639,2.20496 -12.8496,1.99488 -16.7954,-0.41097 z m 32,0 c -4.2905,-2.61611 -6.2993,-6.84141 -6.2948,-13.24082 C 1882.0105,210.2211 1887.301,205 1897,205 c 9.7853,0 14.9925,5.20984 14.9925,15 0,6.45433 -2.3938,11.1219 -6.8986,13.45145 -4.2639,2.20496 -12.8496,1.99488 -16.7954,-0.41097 z m 32,0 c -4.2905,-2.61611 -6.2993,-6.84141 -6.2948,-13.24082 C 1914.0105,210.2211 1919.301,205 1929,205 c 9.7853,0 14.9925,5.20984 14.9925,15 0,6.45433 -2.3938,11.1219 -6.8986,13.45145 -4.2639,2.20496 -12.8496,1.99488 -16.7954,-0.41097 z m 32,0 c -4.2905,-2.61611 -6.2993,-6.84141 -6.2948,-13.24082 C 1946.0105,210.2211 1951.301,205 1961,205 c 9.7853,0 14.9925,5.20984 14.9925,15 0,6.45433 -2.3938,11.1219 -6.8986,13.45145 -4.2639,2.20496 -12.8496,1.99488 -16.7954,-0.41097 z m 64,0 c -4.2905,-2.61611 -6.2993,-6.84141 -6.2948,-13.24082 C 2010.0105,210.2211 2015.301,205 2025,205 c 9.7853,0 14.9925,5.20984 14.9925,15 0,6.45433 -2.3938,11.1219 -6.8986,13.45145 -4.2639,2.20496 -12.8496,1.99488 -16.7954,-0.41097 z m 32,0 c -4.2905,-2.61611 -6.2993,-6.84141 -6.2948,-13.24082 C 2042.0105,210.2211 2047.301,205 2057,205 c 9.7853,0 14.9925,5.20984 14.9925,15 0,6.45433 -2.3938,11.1219 -6.8986,13.45145 -4.2639,2.20496 -12.8496,1.99488 -16.7954,-0.41097 z m 224.3428,0.0616 c -4.6698,-3.07873 -6.6281,-6.94986 -6.6281,-13.10211 0,-9.54401 5.4428,-14.98682 14.9868,-14.98682 9.544,0 14.9868,5.44281 14.9868,14.98682 0,9.54401 -5.4428,14.98682 -14.9868,14.98682 -3.71,0 -6.4304,-0.61339 -8.3587,-1.88471 z m 32,0 c -4.6698,-3.07873 -6.6281,-6.94986 -6.6281,-13.10211 0,-9.54401 5.4428,-14.98682 14.9868,-14.98682 9.544,0 14.9868,5.44281 14.9868,14.98682 0,9.54401 -5.4428,14.98682 -14.9868,14.98682 -3.71,0 -6.4304,-0.61339 -8.3587,-1.88471 z m 192,0 c -4.6698,-3.07873 -6.6281,-6.94986 -6.6281,-13.10211 0,-9.54401 5.4428,-14.98682 14.9868,-14.98682 9.544,0 14.9868,5.44281 14.9868,14.98682 0,9.54401 -5.4428,14.98682 -14.9868,14.98682 -3.71,0 -6.4304,-0.61339 -8.3587,-1.88471 z m 32,0 c -4.6698,-3.07873 -6.6281,-6.94986 -6.6281,-13.10211 0,-9.54401 5.4428,-14.98682 14.9868,-14.98682 9.544,0 14.9868,5.44281 14.9868,14.98682 0,9.54401 -5.4428,14.98682 -14.9868,14.98682 -3.71,0 -6.4304,-0.61339 -8.3587,-1.88471 z m -2464.000003,-32 C 59.971513,198.02338 58.013178,194.15225 58.013178,188 c 0,-9.54401 5.442808,-14.98682 14.986822,-14.98682 9.544014,0 14.986822,5.44281 14.986822,14.98682 0,9.54401 -5.442808,14.98682 -14.986822,14.98682 -3.709991,0 -6.430383,-0.61339 -8.358703,-1.88471 z m 31.657252,-0.0616 C 92.00797,198.42437 89.999224,194.19907 90.003738,187.79966 90.010494,178.2211 95.30095,173 105,173 c 9.78528,0 14.99252,5.20984 14.99252,15 0,6.45433 -2.39378,11.1219 -6.89864,13.45145 -4.26393,2.20496 -12.84961,1.99488 -16.795331,-0.41097 z m 224.000001,0 c -4.29058,-2.61611 -6.29933,-6.84141 -6.29481,-13.24082 C 314.01049,178.2211 319.30095,173 329,173 c 9.78528,0 14.99252,5.20984 14.99252,15 0,6.45433 -2.39378,11.1219 -6.89864,13.45145 -4.26393,2.20496 -12.84961,1.99488 -16.79533,-0.41097 z m 32,0 c -4.29058,-2.61611 -6.29933,-6.84141 -6.29481,-13.24082 C 346.01049,178.2211 351.30095,173 361,173 c 9.78528,0 14.99252,5.20984 14.99252,15 0,6.45433 -2.39378,11.1219 -6.89864,13.45145 -4.26393,2.20496 -12.84961,1.99488 -16.79533,-0.41097 z m 64,0 c -4.29058,-2.61611 -6.29933,-6.84141 -6.29481,-13.24082 C 410.01049,178.2211 415.30095,173 425,173 c 9.78528,0 14.99252,5.20984 14.99252,15 0,6.45433 -2.39378,11.1219 -6.89864,13.45145 -4.26393,2.20496 -12.84961,1.99488 -16.79533,-0.41097 z m 32,0 c -4.29058,-2.61611 -6.29933,-6.84141 -6.29481,-13.24082 C 442.01049,178.2211 447.30095,173 457,173 c 9.78528,0 14.99252,5.20984 14.99252,15 0,6.45433 -2.39378,11.1219 -6.89864,13.45145 -4.26393,2.20496 -12.84961,1.99488 -16.79533,-0.41097 z m 64,0 c -4.29058,-2.61611 -6.29933,-6.84141 -6.29481,-13.24082 C 506.01049,178.2211 511.30095,173 521,173 c 9.78528,0 14.99252,5.20984 14.99252,15 0,6.45433 -2.39378,11.1219 -6.89864,13.45145 -4.26393,2.20496 -12.84961,1.99488 -16.79533,-0.41097 z m 32,0 c -4.29058,-2.61611 -6.29933,-6.84141 -6.29481,-13.24082 C 538.01049,178.2211 543.30095,173 553,173 c 9.78528,0 14.99252,5.20984 14.99252,15 0,6.45433 -2.39378,11.1219 -6.89864,13.45145 -4.26393,2.20496 -12.84961,1.99488 -16.79533,-0.41097 z m 32,0 c -4.29058,-2.61611 -6.29933,-6.84141 -6.29481,-13.24082 C 570.01049,178.2211 575.30095,173 585,173 c 9.78528,0 14.99252,5.20984 14.99252,15 0,6.45433 -2.39378,11.1219 -6.89864,13.45145 -4.26393,2.20496 -12.84961,1.99488 -16.79533,-0.41097 z m 32,0 c -4.29058,-2.61611 -6.29933,-6.84141 -6.29481,-13.24082 C 602.01049,178.2211 607.30095,173 617,173 c 9.78528,0 14.99252,5.20984 14.99252,15 0,6.45433 -2.39378,11.1219 -6.89864,13.45145 -4.26393,2.20496 -12.84961,1.99488 -16.79533,-0.41097 z m 32,0 c -4.29058,-2.61611 -6.29933,-6.84141 -6.29481,-13.24082 C 634.01049,178.2211 639.30095,173 649,173 c 9.78528,0 14.99252,5.20984 14.99252,15 0,6.45433 -2.39378,11.1219 -6.89864,13.45145 -4.26393,2.20496 -12.84961,1.99488 -16.79533,-0.41097 z m 32,0 c -4.29058,-2.61611 -6.29933,-6.84141 -6.29481,-13.24082 C 666.01049,178.2211 671.30095,173 681,173 c 9.78528,0 14.99252,5.20984 14.99252,15 0,6.45433 -2.39378,11.1219 -6.89864,13.45145 -4.26393,2.20496 -12.84961,1.99488 -16.79533,-0.41097 z m 32,0 c -4.29058,-2.61611 -6.29933,-6.84141 -6.29481,-13.24082 C 698.01049,178.2211 703.30095,173 713,173 c 9.78528,0 14.99252,5.20984 14.99252,15 0,6.45433 -2.39378,11.1219 -6.89864,13.45145 -4.26393,2.20496 -12.84961,1.99488 -16.79533,-0.41097 z m 32,0 c -4.29058,-2.61611 -6.29933,-6.84141 -6.29481,-13.24082 C 730.01049,178.2211 735.30095,173 745,173 c 9.78528,0 14.99252,5.20984 14.99252,15 0,6.45433 -2.39378,11.1219 -6.89864,13.45145 -4.26393,2.20496 -12.84961,1.99488 -16.79533,-0.41097 z m 32,0 c -4.29058,-2.61611 -6.29933,-6.84141 -6.29481,-13.24082 C 762.01049,178.2211 767.30095,173 777,173 c 9.78528,0 14.99252,5.20984 14.99252,15 0,6.45433 -2.39378,11.1219 -6.89864,13.45145 -4.26393,2.20496 -12.84961,1.99488 -16.79533,-0.41097 z m 96,0 c -4.29058,-2.61611 -6.29933,-6.84141 -6.29481,-13.24082 C 858.01049,178.2211 863.30095,173 873,173 c 9.78528,0 14.99252,5.20984 14.99252,15 0,6.45433 -2.39378,11.1219 -6.89864,13.45145 -4.26393,2.20496 -12.84961,1.99488 -16.79533,-0.41097 z m 32,0 c -4.29058,-2.61611 -6.29933,-6.84141 -6.29481,-13.24082 C 890.01049,178.2211 895.30095,173 905,173 c 9.78528,0 14.99252,5.20984 14.99252,15 0,6.45433 -2.39378,11.1219 -6.89864,13.45145 -4.26393,2.20496 -12.84961,1.99488 -16.79533,-0.41097 z m 223.99995,0 c -4.2905,-2.61611 -6.2993,-6.84141 -6.2948,-13.24082 C 1114.0105,178.2211 1119.301,173 1129,173 c 9.7853,0 14.9925,5.20984 14.9925,15 0,6.45433 -2.3938,11.1219 -6.8986,13.45145 -4.2639,2.20496 -12.8496,1.99488 -16.7954,-0.41097 z m 32,0 c -4.2905,-2.61611 -6.2993,-6.84141 -6.2948,-13.24082 C 1146.0105,178.2211 1151.301,173 1161,173 c 9.7853,0 14.9925,5.20984 14.9925,15 0,6.45433 -2.3938,11.1219 -6.8986,13.45145 -4.2639,2.20496 -12.8496,1.99488 -16.7954,-0.41097 z m 64,0 c -4.2905,-2.61611 -6.2993,-6.84141 -6.2948,-13.24082 C 1210.0105,178.2211 1215.301,173 1225,173 c 9.7853,0 14.9925,5.20984 14.9925,15 0,6.45433 -2.3938,11.1219 -6.8986,13.45145 -4.2639,2.20496 -12.8496,1.99488 -16.7954,-0.41097 z m 32,0 c -4.2905,-2.61611 -6.2993,-6.84141 -6.2948,-13.24082 C 1242.0105,178.2211 1247.301,173 1257,173 c 9.7853,0 14.9925,5.20984 14.9925,15 0,6.45433 -2.3938,11.1219 -6.8986,13.45145 -4.2639,2.20496 -12.8496,1.99488 -16.7954,-0.41097 z m 224,0 c -4.2905,-2.61611 -6.2993,-6.84141 -6.2948,-13.24082 C 1466.0105,178.2211 1471.301,173 1481,173 c 9.7853,0 14.9925,5.20984 14.9925,15 0,6.45433 -2.3938,11.1219 -6.8986,13.45145 -4.2639,2.20496 -12.8496,1.99488 -16.7954,-0.41097 z m 32,0 c -4.2905,-2.61611 -6.2993,-6.84141 -6.2948,-13.24082 C 1498.0105,178.2211 1503.301,173 1513,173 c 9.7853,0 14.9925,5.20984 14.9925,15 0,6.45433 -2.3938,11.1219 -6.8986,13.45145 -4.2639,2.20496 -12.8496,1.99488 -16.7954,-0.41097 z m 64,0 c -4.2905,-2.61611 -6.2993,-6.84141 -6.2948,-13.24082 C 1562.0105,178.2211 1567.301,173 1577,173 c 9.7853,0 14.9925,5.20984 14.9925,15 0,6.45433 -2.3938,11.1219 -6.8986,13.45145 -4.2639,2.20496 -12.8496,1.99488 -16.7954,-0.41097 z m 32,0 c -4.2905,-2.61611 -6.2993,-6.84141 -6.2948,-13.24082 C 1594.0105,178.2211 1599.301,173 1609,173 c 9.7853,0 14.9925,5.20984 14.9925,15 0,6.45433 -2.3938,11.1219 -6.8986,13.45145 -4.2639,2.20496 -12.8496,1.99488 -16.7954,-0.41097 z m 64,0 c -4.2905,-2.61611 -6.2993,-6.84141 -6.2948,-13.24082 C 1658.0105,178.2211 1663.301,173 1673,173 c 9.7853,0 14.9925,5.20984 14.9925,15 0,6.45433 -2.3938,11.1219 -6.8986,13.45145 -4.2639,2.20496 -12.8496,1.99488 -16.7954,-0.41097 z m 32,0 c -4.2905,-2.61611 -6.2993,-6.84141 -6.2948,-13.24082 C 1690.0105,178.2211 1695.301,173 1705,173 c 9.7853,0 14.9925,5.20984 14.9925,15 0,6.45433 -2.3938,11.1219 -6.8986,13.45145 -4.2639,2.20496 -12.8496,1.99488 -16.7954,-0.41097 z m 32,0 c -4.2905,-2.61611 -6.2993,-6.84141 -6.2948,-13.24082 C 1722.0105,178.2211 1727.301,173 1737,173 c 9.7853,0 14.9925,5.20984 14.9925,15 0,6.45433 -2.3938,11.1219 -6.8986,13.45145 -4.2639,2.20496 -12.8496,1.99488 -16.7954,-0.41097 z m 32,0 c -4.2905,-2.61611 -6.2993,-6.84141 -6.2948,-13.24082 C 1754.0105,178.2211 1759.301,173 1769,173 c 9.7853,0 14.9925,5.20984 14.9925,15 0,6.45433 -2.3938,11.1219 -6.8986,13.45145 -4.2639,2.20496 -12.8496,1.99488 -16.7954,-0.41097 z m 32,0 c -4.2905,-2.61611 -6.2993,-6.84141 -6.2948,-13.24082 C 1786.0105,178.2211 1791.301,173 1801,173 c 9.7853,0 14.9925,5.20984 14.9925,15 0,6.45433 -2.3938,11.1219 -6.8986,13.45145 -4.2639,2.20496 -12.8496,1.99488 -16.7954,-0.41097 z m 32,0 c -4.2905,-2.61611 -6.2993,-6.84141 -6.2948,-13.24082 C 1818.0105,178.2211 1823.301,173 1833,173 c 9.7853,0 14.9925,5.20984 14.9925,15 0,6.45433 -2.3938,11.1219 -6.8986,13.45145 -4.2639,2.20496 -12.8496,1.99488 -16.7954,-0.41097 z m 32,0 c -4.2905,-2.61611 -6.2993,-6.84141 -6.2948,-13.24082 C 1850.0105,178.2211 1855.301,173 1865,173 c 9.7853,0 14.9925,5.20984 14.9925,15 0,6.45433 -2.3938,11.1219 -6.8986,13.45145 -4.2639,2.20496 -12.8496,1.99488 -16.7954,-0.41097 z m 32,0 c -4.2905,-2.61611 -6.2993,-6.84141 -6.2948,-13.24082 C 1882.0105,178.2211 1887.301,173 1897,173 c 9.7853,0 14.9925,5.20984 14.9925,15 0,6.45433 -2.3938,11.1219 -6.8986,13.45145 -4.2639,2.20496 -12.8496,1.99488 -16.7954,-0.41097 z m 32,0 c -4.2905,-2.61611 -6.2993,-6.84141 -6.2948,-13.24082 C 1914.0105,178.2211 1919.301,173 1929,173 c 9.7853,0 14.9925,5.20984 14.9925,15 0,6.45433 -2.3938,11.1219 -6.8986,13.45145 -4.2639,2.20496 -12.8496,1.99488 -16.7954,-0.41097 z m 32,0 c -4.2905,-2.61611 -6.2993,-6.84141 -6.2948,-13.24082 C 1946.0105,178.2211 1951.301,173 1961,173 c 9.7853,0 14.9925,5.20984 14.9925,15 0,6.45433 -2.3938,11.1219 -6.8986,13.45145 -4.2639,2.20496 -12.8496,1.99488 -16.7954,-0.41097 z m 64,0 c -4.2905,-2.61611 -6.2993,-6.84141 -6.2948,-13.24082 C 2010.0105,178.2211 2015.301,173 2025,173 c 9.7853,0 14.9925,5.20984 14.9925,15 0,6.45433 -2.3938,11.1219 -6.8986,13.45145 -4.2639,2.20496 -12.8496,1.99488 -16.7954,-0.41097 z m 32,0 c -4.2905,-2.61611 -6.2993,-6.84141 -6.2948,-13.24082 C 2042.0105,178.2211 2047.301,173 2057,173 c 9.7853,0 14.9925,5.20984 14.9925,15 0,6.45433 -2.3938,11.1219 -6.8986,13.45145 -4.2639,2.20496 -12.8496,1.99488 -16.7954,-0.41097 z m 224,0 c -4.2905,-2.61611 -6.2993,-6.84141 -6.2948,-13.24082 C 2266.0105,178.2211 2271.301,173 2281,173 c 9.7853,0 14.9925,5.20984 14.9925,15 0,6.45433 -2.3938,11.1219 -6.8986,13.45145 -4.2639,2.20496 -12.8496,1.99488 -16.7954,-0.41097 z m 32,0 c -4.2905,-2.61611 -6.2993,-6.84141 -6.2948,-13.24082 C 2298.0105,178.2211 2303.301,173 2313,173 c 9.7853,0 14.9925,5.20984 14.9925,15 0,6.45433 -2.3938,11.1219 -6.8986,13.45145 -4.2639,2.20496 -12.8496,1.99488 -16.7954,-0.41097 z m 192,0 c -4.2905,-2.61611 -6.2993,-6.84141 -6.2948,-13.24082 C 2490.0105,178.2211 2495.301,173 2505,173 c 9.7853,0 14.9925,5.20984 14.9925,15 0,6.45433 -2.3938,11.1219 -6.8986,13.45145 -4.2639,2.20496 -12.8496,1.99488 -16.7954,-0.41097 z m 32,0 c -4.2905,-2.61611 -6.2993,-6.84141 -6.2948,-13.24082 C 2522.0105,178.2211 2527.301,173 2537,173 c 9.7853,0 14.9925,5.20984 14.9925,15 0,6.45433 -2.3938,11.1219 -6.8986,13.45145 -4.2639,2.20496 -12.8496,1.99488 -16.7954,-0.41097 z M 64.641297,169.10211 C 59.971513,166.02338 58.013178,162.15225 58.013178,156 c 0,-9.54401 5.442808,-14.98682 14.986822,-14.98682 9.544014,0 14.986822,5.44281 14.986822,14.98682 0,9.54401 -5.442808,14.98682 -14.986822,14.98682 -3.709991,0 -6.430383,-0.61339 -8.358703,-1.88471 z m 32,0 C 91.971513,166.02338 90.013178,162.15225 90.013178,156 c 0,-9.54401 5.442808,-14.98682 14.986822,-14.98682 9.54401,0 14.98682,5.44281 14.98682,14.98682 0,9.54401 -5.44281,14.98682 -14.98682,14.98682 -3.70999,0 -6.430383,-0.61339 -8.358703,-1.88471 z m 224.000003,0 c -4.66979,-3.07873 -6.62812,-6.94986 -6.62812,-13.10211 0,-9.54401 5.44281,-14.98682 14.98682,-14.98682 9.54401,0 14.98682,5.44281 14.98682,14.98682 0,9.54401 -5.44281,14.98682 -14.98682,14.98682 -3.70999,0 -6.43038,-0.61339 -8.3587,-1.88471 z m 32,0 c -4.66979,-3.07873 -6.62812,-6.94986 -6.62812,-13.10211 0,-9.54401 5.44281,-14.98682 14.98682,-14.98682 9.54401,0 14.98682,5.44281 14.98682,14.98682 0,9.54401 -5.44281,14.98682 -14.98682,14.98682 -3.70999,0 -6.43038,-0.61339 -8.3587,-1.88471 z m 160,0 c -4.66979,-3.07873 -6.62812,-6.94986 -6.62812,-13.10211 0,-9.54401 5.44281,-14.98682 14.98682,-14.98682 9.54401,0 14.98682,5.44281 14.98682,14.98682 0,9.54401 -5.44281,14.98682 -14.98682,14.98682 -3.70999,0 -6.43038,-0.61339 -8.3587,-1.88471 z m 32,0 c -4.66979,-3.07873 -6.62812,-6.94986 -6.62812,-13.10211 0,-9.54401 5.44281,-14.98682 14.98682,-14.98682 9.54401,0 14.98682,5.44281 14.98682,14.98682 0,9.54401 -5.44281,14.98682 -14.98682,14.98682 -3.70999,0 -6.43038,-0.61339 -8.3587,-1.88471 z m 319.65725,-0.0616 c -4.29058,-2.61611 -6.29933,-6.84141 -6.29481,-13.24082 C 858.01049,146.2211 863.30095,141 873,141 c 9.78528,0 14.99252,5.20984 14.99252,15 0,6.45433 -2.39378,11.1219 -6.89864,13.45145 -4.26393,2.20496 -12.84961,1.99488 -16.79533,-0.41097 z m 32,0 c -4.29058,-2.61611 -6.29933,-6.84141 -6.29481,-13.24082 C 890.01049,146.2211 895.30095,141 905,141 c 9.78528,0 14.99252,5.20984 14.99252,15 0,6.45433 -2.39378,11.1219 -6.89864,13.45145 -4.26393,2.20496 -12.84961,1.99488 -16.79533,-0.41097 z m 223.99995,0 c -4.2905,-2.61611 -6.2993,-6.84141 -6.2948,-13.24082 C 1114.0105,146.2211 1119.301,141 1129,141 c 9.7853,0 14.9925,5.20984 14.9925,15 0,6.45433 -2.3938,11.1219 -6.8986,13.45145 -4.2639,2.20496 -12.8496,1.99488 -16.7954,-0.41097 z m 32,0 c -4.2905,-2.61611 -6.2993,-6.84141 -6.2948,-13.24082 C 1146.0105,146.2211 1151.301,141 1161,141 c 9.7853,0 14.9925,5.20984 14.9925,15 0,6.45433 -2.3938,11.1219 -6.8986,13.45145 -4.2639,2.20496 -12.8496,1.99488 -16.7954,-0.41097 z m 64,0 c -4.2905,-2.61611 -6.2993,-6.84141 -6.2948,-13.24082 C 1210.0105,146.2211 1215.301,141 1225,141 c 9.7853,0 14.9925,5.20984 14.9925,15 0,6.45433 -2.3938,11.1219 -6.8986,13.45145 -4.2639,2.20496 -12.8496,1.99488 -16.7954,-0.41097 z m 32,0 c -4.2905,-2.61611 -6.2993,-6.84141 -6.2948,-13.24082 C 1242.0105,146.2211 1247.301,141 1257,141 c 9.7853,0 14.9925,5.20984 14.9925,15 0,6.45433 -2.3938,11.1219 -6.8986,13.45145 -4.2639,2.20496 -12.8496,1.99488 -16.7954,-0.41097 z m 224,0 c -4.2905,-2.61611 -6.2993,-6.84141 -6.2948,-13.24082 C 1466.0105,146.2211 1471.301,141 1481,141 c 9.7853,0 14.9925,5.20984 14.9925,15 0,6.45433 -2.3938,11.1219 -6.8986,13.45145 -4.2639,2.20496 -12.8496,1.99488 -16.7954,-0.41097 z m 32,0 c -4.2905,-2.61611 -6.2993,-6.84141 -6.2948,-13.24082 C 1498.0105,146.2211 1503.301,141 1513,141 c 9.7853,0 14.9925,5.20984 14.9925,15 0,6.45433 -2.3938,11.1219 -6.8986,13.45145 -4.2639,2.20496 -12.8496,1.99488 -16.7954,-0.41097 z m 160,0 c -4.2905,-2.61611 -6.2993,-6.84141 -6.2948,-13.24082 C 1658.0105,146.2211 1663.301,141 1673,141 c 9.7853,0 14.9925,5.20984 14.9925,15 0,6.45433 -2.3938,11.1219 -6.8986,13.45145 -4.2639,2.20496 -12.8496,1.99488 -16.7954,-0.41097 z m 32,0 c -4.2905,-2.61611 -6.2993,-6.84141 -6.2948,-13.24082 C 1690.0105,146.2211 1695.301,141 1705,141 c 9.7853,0 14.9925,5.20984 14.9925,15 0,6.45433 -2.3938,11.1219 -6.8986,13.45145 -4.2639,2.20496 -12.8496,1.99488 -16.7954,-0.41097 z m 224,0 c -4.2905,-2.61611 -6.2993,-6.84141 -6.2948,-13.24082 C 1914.0105,146.2211 1919.301,141 1929,141 c 9.7853,0 14.9925,5.20984 14.9925,15 0,6.45433 -2.3938,11.1219 -6.8986,13.45145 -4.2639,2.20496 -12.8496,1.99488 -16.7954,-0.41097 z m 32,0 c -4.2905,-2.61611 -6.2993,-6.84141 -6.2948,-13.24082 C 1946.0105,146.2211 1951.301,141 1961,141 c 9.7853,0 14.9925,5.20984 14.9925,15 0,6.45433 -2.3938,11.1219 -6.8986,13.45145 -4.2639,2.20496 -12.8496,1.99488 -16.7954,-0.41097 z m 64,0 c -4.2905,-2.61611 -6.2993,-6.84141 -6.2948,-13.24082 C 2010.0105,146.2211 2015.301,141 2025,141 c 9.7853,0 14.9925,5.20984 14.9925,15 0,6.45433 -2.3938,11.1219 -6.8986,13.45145 -4.2639,2.20496 -12.8496,1.99488 -16.7954,-0.41097 z m 32,0 c -4.2905,-2.61611 -6.2993,-6.84141 -6.2948,-13.24082 C 2042.0105,146.2211 2047.301,141 2057,141 c 9.7853,0 14.9925,5.20984 14.9925,15 0,6.45433 -2.3938,11.1219 -6.8986,13.45145 -4.2639,2.20496 -12.8496,1.99488 -16.7954,-0.41097 z m 224.3428,0.0616 c -4.6698,-3.07873 -6.6281,-6.94986 -6.6281,-13.10211 0,-9.54401 5.4428,-14.98682 14.9868,-14.98682 9.544,0 14.9868,5.44281 14.9868,14.98682 0,9.54401 -5.4428,14.98682 -14.9868,14.98682 -3.71,0 -6.4304,-0.61339 -8.3587,-1.88471 z m 32,0 c -4.6698,-3.07873 -6.6281,-6.94986 -6.6281,-13.10211 0,-9.54401 5.4428,-14.98682 14.9868,-14.98682 9.544,0 14.9868,5.44281 14.9868,14.98682 0,9.54401 -5.4428,14.98682 -14.9868,14.98682 -3.71,0 -6.4304,-0.61339 -8.3587,-1.88471 z m 192,0 c -4.6698,-3.07873 -6.6281,-6.94986 -6.6281,-13.10211 0,-9.54401 5.4428,-14.98682 14.9868,-14.98682 9.544,0 14.9868,5.44281 14.9868,14.98682 0,9.54401 -5.4428,14.98682 -14.9868,14.98682 -3.71,0 -6.4304,-0.61339 -8.3587,-1.88471 z m 32,0 c -4.6698,-3.07873 -6.6281,-6.94986 -6.6281,-13.10211 0,-9.54401 5.4428,-14.98682 14.9868,-14.98682 9.544,0 14.9868,5.44281 14.9868,14.98682 0,9.54401 -5.4428,14.98682 -14.9868,14.98682 -3.71,0 -6.4304,-0.61339 -8.3587,-1.88471 z m -2464.000003,-32 C 59.971513,134.02338 58.013178,130.15225 58.013178,124 c 0,-6.15225 1.958335,-10.02338 6.628119,-13.10211 3.889604,-2.56437 12.827802,-2.56437 16.717406,0 4.669784,3.07873 6.628119,6.94986 6.628119,13.10211 0,9.54401 -5.442808,14.98682 -14.986822,14.98682 -3.709991,0 -6.430383,-0.61339 -8.358703,-1.88471 z m 32,0 C 91.971513,134.02338 90.013178,130.15225 90.013178,124 c 0,-6.15225 1.958335,-10.02338 6.628119,-13.10211 3.889603,-2.56437 12.827803,-2.56437 16.717403,0 4.66979,3.07873 6.62812,6.94986 6.62812,13.10211 0,9.54401 -5.44281,14.98682 -14.98682,14.98682 -3.70999,0 -6.430383,-0.61339 -8.358703,-1.88471 z m 32.000003,0 c -4.66979,-3.07873 -6.62812,-6.94986 -6.62812,-13.10211 0,-9.54401 5.44281,-14.98682 14.98682,-14.98682 9.54401,0 14.98682,5.44281 14.98682,14.98682 0,9.54401 -5.44281,14.98682 -14.98682,14.98682 -3.70999,0 -6.43038,-0.61339 -8.3587,-1.88471 z m 32,0 c -4.66979,-3.07873 -6.62812,-6.94986 -6.62812,-13.10211 0,-9.54401 5.44281,-14.98682 14.98682,-14.98682 9.54401,0 14.98682,5.44281 14.98682,14.98682 0,9.54401 -5.44281,14.98682 -14.98682,14.98682 -3.70999,0 -6.43038,-0.61339 -8.3587,-1.88471 z m 32,0 c -4.66979,-3.07873 -6.62812,-6.94986 -6.62812,-13.10211 0,-9.54401 5.44281,-14.98682 14.98682,-14.98682 9.54401,0 14.98682,5.44281 14.98682,14.98682 0,9.54401 -5.44281,14.98682 -14.98682,14.98682 -3.70999,0 -6.43038,-0.61339 -8.3587,-1.88471 z m 32,0 c -4.66979,-3.07873 -6.62812,-6.94986 -6.62812,-13.10211 0,-9.54401 5.44281,-14.98682 14.98682,-14.98682 9.54401,0 14.98682,5.44281 14.98682,14.98682 0,9.54401 -5.44281,14.98682 -14.98682,14.98682 -3.70999,0 -6.43038,-0.61339 -8.3587,-1.88471 z m 32,0 c -4.66979,-3.07873 -6.62812,-6.94986 -6.62812,-13.10211 0,-9.54401 5.44281,-14.98682 14.98682,-14.98682 9.54401,0 14.98682,5.44281 14.98682,14.98682 0,9.54401 -5.44281,14.98682 -14.98682,14.98682 -3.70999,0 -6.43038,-0.61339 -8.3587,-1.88471 z m 32,0 c -4.66979,-3.07873 -6.62812,-6.94986 -6.62812,-13.10211 0,-9.54401 5.44281,-14.98682 14.98682,-14.98682 9.54401,0 14.98682,5.44281 14.98682,14.98682 0,9.54401 -5.44281,14.98682 -14.98682,14.98682 -3.70999,0 -6.43038,-0.61339 -8.3587,-1.88471 z m 32,0 c -4.66979,-3.07873 -6.62812,-6.94986 -6.62812,-13.10211 0,-9.54401 5.44281,-14.98682 14.98682,-14.98682 9.54401,0 14.98682,5.44281 14.98682,14.98682 0,9.54401 -5.44281,14.98682 -14.98682,14.98682 -3.70999,0 -6.43038,-0.61339 -8.3587,-1.88471 z m 32,0 c -4.66979,-3.07873 -6.62812,-6.94986 -6.62812,-13.10211 0,-9.54401 5.44281,-14.98682 14.98682,-14.98682 9.54401,0 14.98682,5.44281 14.98682,14.98682 0,9.54401 -5.44281,14.98682 -14.98682,14.98682 -3.70999,0 -6.43038,-0.61339 -8.3587,-1.88471 z m 64,0 c -4.66979,-3.07873 -6.62812,-6.94986 -6.62812,-13.10211 0,-9.54401 5.44281,-14.98682 14.98682,-14.98682 9.54401,0 14.98682,5.44281 14.98682,14.98682 0,9.54401 -5.44281,14.98682 -14.98682,14.98682 -3.70999,0 -6.43038,-0.61339 -8.3587,-1.88471 z m 32,0 c -4.66979,-3.07873 -6.62812,-6.94986 -6.62812,-13.10211 0,-9.54401 5.44281,-14.98682 14.98682,-14.98682 9.54401,0 14.98682,5.44281 14.98682,14.98682 0,9.54401 -5.44281,14.98682 -14.98682,14.98682 -3.70999,0 -6.43038,-0.61339 -8.3587,-1.88471 z m 64,0 c -4.66979,-3.07873 -6.62812,-6.94986 -6.62812,-13.10211 0,-9.54401 5.44281,-14.98682 14.98682,-14.98682 9.54401,0 14.98682,5.44281 14.98682,14.98682 0,9.54401 -5.44281,14.98682 -14.98682,14.98682 -3.70999,0 -6.43038,-0.61339 -8.3587,-1.88471 z m 32,0 c -4.66979,-3.07873 -6.62812,-6.94986 -6.62812,-13.10211 0,-9.54401 5.44281,-14.98682 14.98682,-14.98682 9.54401,0 14.98682,5.44281 14.98682,14.98682 0,9.54401 -5.44281,14.98682 -14.98682,14.98682 -3.70999,0 -6.43038,-0.61339 -8.3587,-1.88471 z m 31.65725,-0.0616 c -4.29058,-2.61611 -6.29933,-6.84141 -6.29481,-13.24082 C 570.01049,114.2211 575.30095,109 585,109 c 9.78528,0 14.99252,5.20984 14.99252,15 0,6.45433 -2.39378,11.1219 -6.89864,13.45145 -4.26393,2.20496 -12.84961,1.99488 -16.79533,-0.41097 z m 32,0 c -4.29058,-2.61611 -6.29933,-6.84141 -6.29481,-13.24082 C 602.01049,114.2211 607.30095,109 617,109 c 9.78528,0 14.99252,5.20984 14.99252,15 0,6.45433 -2.39378,11.1219 -6.89864,13.45145 -4.26393,2.20496 -12.84961,1.99488 -16.79533,-0.41097 z m 32,0 c -4.29058,-2.61611 -6.29933,-6.84141 -6.29481,-13.24082 C 634.01049,114.2211 639.30095,109 649,109 c 9.78528,0 14.99252,5.20984 14.99252,15 0,6.45433 -2.39378,11.1219 -6.89864,13.45145 -4.26393,2.20496 -12.84961,1.99488 -16.79533,-0.41097 z m 32,0 c -4.29058,-2.61611 -6.29933,-6.84141 -6.29481,-13.24082 C 666.01049,114.2211 671.30095,109 681,109 c 9.78528,0 14.99252,5.20984 14.99252,15 0,6.45433 -2.39378,11.1219 -6.89864,13.45145 -4.26393,2.20496 -12.84961,1.99488 -16.79533,-0.41097 z m 32,0 c -4.29058,-2.61611 -6.29933,-6.84141 -6.29481,-13.24082 C 698.01049,114.2211 703.30095,109 713,109 c 9.78528,0 14.99252,5.20984 14.99252,15 0,6.45433 -2.39378,11.1219 -6.89864,13.45145 -4.26393,2.20496 -12.84961,1.99488 -16.79533,-0.41097 z m 32,0 c -4.29058,-2.61611 -6.29933,-6.84141 -6.29481,-13.24082 C 730.01049,114.2211 735.30095,109 745,109 c 9.78528,0 14.99252,5.20984 14.99252,15 0,6.45433 -2.39378,11.1219 -6.89864,13.45145 -4.26393,2.20496 -12.84961,1.99488 -16.79533,-0.41097 z m 32,0 c -4.29058,-2.61611 -6.29933,-6.84141 -6.29481,-13.24082 C 762.01049,114.2211 767.30095,109 777,109 c 9.78528,0 14.99252,5.20984 14.99252,15 0,6.45433 -2.39378,11.1219 -6.89864,13.45145 -4.26393,2.20496 -12.84961,1.99488 -16.79533,-0.41097 z m 32,0 c -4.29058,-2.61611 -6.29933,-6.84141 -6.29481,-13.24082 C 794.01049,114.2211 799.30095,109 809,109 c 9.78528,0 14.99252,5.20984 14.99252,15 0,6.45433 -2.39378,11.1219 -6.89864,13.45145 -4.26393,2.20496 -12.84961,1.99488 -16.79533,-0.41097 z m 64,0 c -4.29058,-2.61611 -6.29933,-6.84141 -6.29481,-13.24082 C 858.01049,114.2211 863.30095,109 873,109 c 9.78528,0 14.99252,5.20984 14.99252,15 0,6.45433 -2.39378,11.1219 -6.89864,13.45145 -4.26393,2.20496 -12.84961,1.99488 -16.79533,-0.41097 z m 32,0 c -4.29058,-2.61611 -6.29933,-6.84141 -6.29481,-13.24082 C 890.01049,114.2211 895.30095,109 905,109 c 9.78528,0 14.99252,5.20984 14.99252,15 0,6.45433 -2.39378,11.1219 -6.89864,13.45145 -4.26393,2.20496 -12.84961,1.99488 -16.79533,-0.41097 z m 32,0 c -4.29058,-2.61611 -6.29933,-6.84141 -6.29481,-13.24082 C 922.01049,114.2211 927.30095,109 937,109 c 9.78528,0 14.99252,5.20984 14.99252,15 0,6.45433 -2.39378,11.1219 -6.89864,13.45145 -4.26393,2.20496 -12.84961,1.99488 -16.79533,-0.41097 z m 32,0 c -4.29058,-2.61611 -6.29933,-6.84141 -6.29481,-13.24082 C 954.01049,114.2211 959.30095,109 969,109 c 9.78528,0 14.99252,5.20984 14.99252,15 0,6.45433 -2.39378,11.1219 -6.89864,13.45145 -4.26393,2.20496 -12.84961,1.99488 -16.79533,-0.41097 z m 32,0 c -4.29058,-2.61611 -6.29933,-6.84141 -6.29481,-13.24082 C 986.01049,114.2211 991.30095,109 1001,109 c 9.7853,0 14.9925,5.20984 14.9925,15 0,6.45433 -2.3938,11.1219 -6.8986,13.45145 -4.2639,2.20496 -12.84963,1.99488 -16.79535,-0.41097 z m 31.99995,0 c -4.2905,-2.61611 -6.2993,-6.84141 -6.2948,-13.24082 C 1018.0105,114.2211 1023.301,109 1033,109 c 9.7853,0 14.9925,5.20984 14.9925,15 0,6.45433 -2.3938,11.1219 -6.8986,13.45145 -4.2639,2.20496 -12.8496,1.99488 -16.7954,-0.41097 z m 32,0 c -4.2905,-2.61611 -6.2993,-6.84141 -6.2948,-13.24082 C 1050.0105,114.2211 1055.301,109 1065,109 c 9.7853,0 14.9925,5.20984 14.9925,15 0,6.45433 -2.3938,11.1219 -6.8986,13.45145 -4.2639,2.20496 -12.8496,1.99488 -16.7954,-0.41097 z m 32,0 c -4.2905,-2.61611 -6.2993,-6.84141 -6.2948,-13.24082 C 1082.0105,114.2211 1087.301,109 1097,109 c 9.7853,0 14.9925,5.20984 14.9925,15 0,6.45433 -2.3938,11.1219 -6.8986,13.45145 -4.2639,2.20496 -12.8496,1.99488 -16.7954,-0.41097 z m 32,0 c -4.2905,-2.61611 -6.2993,-6.84141 -6.2948,-13.24082 C 1114.0105,114.2211 1119.301,109 1129,109 c 9.7853,0 14.9925,5.20984 14.9925,15 0,6.45433 -2.3938,11.1219 -6.8986,13.45145 -4.2639,2.20496 -12.8496,1.99488 -16.7954,-0.41097 z m 32,0 c -4.2905,-2.61611 -6.2993,-6.84141 -6.2948,-13.24082 C 1146.0105,114.2211 1151.301,109 1161,109 c 9.7853,0 14.9925,5.20984 14.9925,15 0,6.45433 -2.3938,11.1219 -6.8986,13.45145 -4.2639,2.20496 -12.8496,1.99488 -16.7954,-0.41097 z m 64,0 c -4.2905,-2.61611 -6.2993,-6.84141 -6.2948,-13.24082 C 1210.0105,114.2211 1215.301,109 1225,109 c 9.7853,0 14.9925,5.20984 14.9925,15 0,6.45433 -2.3938,11.1219 -6.8986,13.45145 -4.2639,2.20496 -12.8496,1.99488 -16.7954,-0.41097 z m 32,0 c -4.2905,-2.61611 -6.2993,-6.84141 -6.2948,-13.24082 C 1242.0105,114.2211 1247.301,109 1257,109 c 9.7853,0 14.9925,5.20984 14.9925,15 0,6.45433 -2.3938,11.1219 -6.8986,13.45145 -4.2639,2.20496 -12.8496,1.99488 -16.7954,-0.41097 z m 32,0 c -4.2905,-2.61611 -6.2993,-6.84141 -6.2948,-13.24082 C 1274.0105,114.2211 1279.301,109 1289,109 c 9.7853,0 14.9925,5.20984 14.9925,15 0,6.45433 -2.3938,11.1219 -6.8986,13.45145 -4.2639,2.20496 -12.8496,1.99488 -16.7954,-0.41097 z m 32,0 c -4.2905,-2.61611 -6.2993,-6.84141 -6.2948,-13.24082 C 1306.0105,114.2211 1311.301,109 1321,109 c 9.7853,0 14.9925,5.20984 14.9925,15 0,6.45433 -2.3938,11.1219 -6.8986,13.45145 -4.2639,2.20496 -12.8496,1.99488 -16.7954,-0.41097 z m 32,0 c -4.2905,-2.61611 -6.2993,-6.84141 -6.2948,-13.24082 C 1338.0105,114.2211 1343.301,109 1353,109 c 9.7853,0 14.9925,5.20984 14.9925,15 0,6.45433 -2.3938,11.1219 -6.8986,13.45145 -4.2639,2.20496 -12.8496,1.99488 -16.7954,-0.41097 z m 32,0 c -4.2905,-2.61611 -6.2993,-6.84141 -6.2948,-13.24082 C 1370.0105,114.2211 1375.301,109 1385,109 c 9.7853,0 14.9925,5.20984 14.9925,15 0,6.45433 -2.3938,11.1219 -6.8986,13.45145 -4.2639,2.20496 -12.8496,1.99488 -16.7954,-0.41097 z m 32,0 c -4.2905,-2.61611 -6.2993,-6.84141 -6.2948,-13.24082 C 1402.0105,114.2211 1407.301,109 1417,109 c 9.7853,0 14.9925,5.20984 14.9925,15 0,6.45433 -2.3938,11.1219 -6.8986,13.45145 -4.2639,2.20496 -12.8496,1.99488 -16.7954,-0.41097 z m 32,0 c -4.2905,-2.61611 -6.2993,-6.84141 -6.2948,-13.24082 C 1434.0105,114.2211 1439.301,109 1449,109 c 9.7853,0 14.9925,5.20984 14.9925,15 0,6.45433 -2.3938,11.1219 -6.8986,13.45145 -4.2639,2.20496 -12.8496,1.99488 -16.7954,-0.41097 z m 32,0 c -4.2905,-2.61611 -6.2993,-6.84141 -6.2948,-13.24082 C 1466.0105,114.2211 1471.301,109 1481,109 c 9.7853,0 14.9925,5.20984 14.9925,15 0,6.45433 -2.3938,11.1219 -6.8986,13.45145 -4.2639,2.20496 -12.8496,1.99488 -16.7954,-0.41097 z m 32,0 c -4.2905,-2.61611 -6.2993,-6.84141 -6.2948,-13.24082 C 1498.0105,114.2211 1503.301,109 1513,109 c 9.7853,0 14.9925,5.20984 14.9925,15 0,6.45433 -2.3938,11.1219 -6.8986,13.45145 -4.2639,2.20496 -12.8496,1.99488 -16.7954,-0.41097 z m 64,0 c -4.2905,-2.61611 -6.2993,-6.84141 -6.2948,-13.24082 C 1562.0105,114.2211 1567.301,109 1577,109 c 9.7853,0 14.9925,5.20984 14.9925,15 0,6.45433 -2.3938,11.1219 -6.8986,13.45145 -4.2639,2.20496 -12.8496,1.99488 -16.7954,-0.41097 z m 32,0 c -4.2905,-2.61611 -6.2993,-6.84141 -6.2948,-13.24082 C 1594.0105,114.2211 1599.301,109 1609,109 c 9.7853,0 14.9925,5.20984 14.9925,15 0,6.45433 -2.3938,11.1219 -6.8986,13.45145 -4.2639,2.20496 -12.8496,1.99488 -16.7954,-0.41097 z m 64,0 c -4.2905,-2.61611 -6.2993,-6.84141 -6.2948,-13.24082 C 1658.0105,114.2211 1663.301,109 1673,109 c 9.7853,0 14.9925,5.20984 14.9925,15 0,6.45433 -2.3938,11.1219 -6.8986,13.45145 -4.2639,2.20496 -12.8496,1.99488 -16.7954,-0.41097 z m 32,0 c -4.2905,-2.61611 -6.2993,-6.84141 -6.2948,-13.24082 C 1690.0105,114.2211 1695.301,109 1705,109 c 9.7853,0 14.9925,5.20984 14.9925,15 0,6.45433 -2.3938,11.1219 -6.8986,13.45145 -4.2639,2.20496 -12.8496,1.99488 -16.7954,-0.41097 z m 32,0 c -4.2905,-2.61611 -6.2993,-6.84141 -6.2948,-13.24082 C 1722.0105,114.2211 1727.301,109 1737,109 c 9.7853,0 14.9925,5.20984 14.9925,15 0,6.45433 -2.3938,11.1219 -6.8986,13.45145 -4.2639,2.20496 -12.8496,1.99488 -16.7954,-0.41097 z m 32,0 c -4.2905,-2.61611 -6.2993,-6.84141 -6.2948,-13.24082 C 1754.0105,114.2211 1759.301,109 1769,109 c 9.7853,0 14.9925,5.20984 14.9925,15 0,6.45433 -2.3938,11.1219 -6.8986,13.45145 -4.2639,2.20496 -12.8496,1.99488 -16.7954,-0.41097 z m 32,0 c -4.2905,-2.61611 -6.2993,-6.84141 -6.2948,-13.24082 C 1786.0105,114.2211 1791.301,109 1801,109 c 9.7853,0 14.9925,5.20984 14.9925,15 0,6.45433 -2.3938,11.1219 -6.8986,13.45145 -4.2639,2.20496 -12.8496,1.99488 -16.7954,-0.41097 z m 32,0 c -4.2905,-2.61611 -6.2993,-6.84141 -6.2948,-13.24082 C 1818.0105,114.2211 1823.301,109 1833,109 c 9.7853,0 14.9925,5.20984 14.9925,15 0,6.45433 -2.3938,11.1219 -6.8986,13.45145 -4.2639,2.20496 -12.8496,1.99488 -16.7954,-0.41097 z m 32,0 c -4.2905,-2.61611 -6.2993,-6.84141 -6.2948,-13.24082 C 1850.0105,114.2211 1855.301,109 1865,109 c 9.7853,0 14.9925,5.20984 14.9925,15 0,6.45433 -2.3938,11.1219 -6.8986,13.45145 -4.2639,2.20496 -12.8496,1.99488 -16.7954,-0.41097 z m 32,0 c -4.2905,-2.61611 -6.2993,-6.84141 -6.2948,-13.24082 C 1882.0105,114.2211 1887.301,109 1897,109 c 9.7853,0 14.9925,5.20984 14.9925,15 0,6.45433 -2.3938,11.1219 -6.8986,13.45145 -4.2639,2.20496 -12.8496,1.99488 -16.7954,-0.41097 z m 32,0 c -4.2905,-2.61611 -6.2993,-6.84141 -6.2948,-13.24082 C 1914.0105,114.2211 1919.301,109 1929,109 c 9.7853,0 14.9925,5.20984 14.9925,15 0,6.45433 -2.3938,11.1219 -6.8986,13.45145 -4.2639,2.20496 -12.8496,1.99488 -16.7954,-0.41097 z m 32,0 c -4.2905,-2.61611 -6.2993,-6.84141 -6.2948,-13.24082 C 1946.0105,114.2211 1951.301,109 1961,109 c 9.7853,0 14.9925,5.20984 14.9925,15 0,6.45433 -2.3938,11.1219 -6.8986,13.45145 -4.2639,2.20496 -12.8496,1.99488 -16.7954,-0.41097 z m 64,0 c -4.2905,-2.61611 -6.2993,-6.84141 -6.2948,-13.24082 C 2010.0105,114.2211 2015.301,109 2025,109 c 9.7853,0 14.9925,5.20984 14.9925,15 0,6.45433 -2.3938,11.1219 -6.8986,13.45145 -4.2639,2.20496 -12.8496,1.99488 -16.7954,-0.41097 z m 32,0 c -4.2905,-2.61611 -6.2993,-6.84141 -6.2948,-13.24082 C 2042.0105,114.2211 2047.301,109 2057,109 c 9.7853,0 14.9925,5.20984 14.9925,15 0,6.45433 -2.3938,11.1219 -6.8986,13.45145 -4.2639,2.20496 -12.8496,1.99488 -16.7954,-0.41097 z m 32,0 c -4.2905,-2.61611 -6.2993,-6.84141 -6.2948,-13.24082 C 2074.0105,114.2211 2079.301,109 2089,109 c 9.7853,0 14.9925,5.20984 14.9925,15 0,6.45433 -2.3938,11.1219 -6.8986,13.45145 -4.2639,2.20496 -12.8496,1.99488 -16.7954,-0.41097 z m 32.3428,0.0616 c -4.6698,-3.07873 -6.6281,-6.94986 -6.6281,-13.10211 0,-9.54401 5.4428,-14.98682 14.9868,-14.98682 9.544,0 14.9868,5.44281 14.9868,14.98682 0,9.54401 -5.4428,14.98682 -14.9868,14.98682 -3.71,0 -6.4304,-0.61339 -8.3587,-1.88471 z m 32,0 c -4.6698,-3.07873 -6.6281,-6.94986 -6.6281,-13.10211 0,-9.54401 5.4428,-14.98682 14.9868,-14.98682 9.544,0 14.9868,5.44281 14.9868,14.98682 0,9.54401 -5.4428,14.98682 -14.9868,14.98682 -3.71,0 -6.4304,-0.61339 -8.3587,-1.88471 z m 32,0 c -4.6698,-3.07873 -6.6281,-6.94986 -6.6281,-13.10211 0,-9.54401 5.4428,-14.98682 14.9868,-14.98682 9.544,0 14.9868,5.44281 14.9868,14.98682 0,9.54401 -5.4428,14.98682 -14.9868,14.98682 -3.71,0 -6.4304,-0.61339 -8.3587,-1.88471 z m 32,0 c -4.6698,-3.07873 -6.6281,-6.94986 -6.6281,-13.10211 0,-9.54401 5.4428,-14.98682 14.9868,-14.98682 9.544,0 14.9868,5.44281 14.9868,14.98682 0,9.54401 -5.4428,14.98682 -14.9868,14.98682 -3.71,0 -6.4304,-0.61339 -8.3587,-1.88471 z m 32,0 c -4.6698,-3.07873 -6.6281,-6.94986 -6.6281,-13.10211 0,-9.54401 5.4428,-14.98682 14.9868,-14.98682 9.544,0 14.9868,5.44281 14.9868,14.98682 0,9.54401 -5.4428,14.98682 -14.9868,14.98682 -3.71,0 -6.4304,-0.61339 -8.3587,-1.88471 z m 32,0 c -4.6698,-3.07873 -6.6281,-6.94986 -6.6281,-13.10211 0,-9.54401 5.4428,-14.98682 14.9868,-14.98682 9.544,0 14.9868,5.44281 14.9868,14.98682 0,9.54401 -5.4428,14.98682 -14.9868,14.98682 -3.71,0 -6.4304,-0.61339 -8.3587,-1.88471 z m 32,0 c -4.6698,-3.07873 -6.6281,-6.94986 -6.6281,-13.10211 0,-9.54401 5.4428,-14.98682 14.9868,-14.98682 9.544,0 14.9868,5.44281 14.9868,14.98682 0,9.54401 -5.4428,14.98682 -14.9868,14.98682 -3.71,0 -6.4304,-0.61339 -8.3587,-1.88471 z m 64,0 c -4.6698,-3.07873 -6.6281,-6.94986 -6.6281,-13.10211 0,-9.54401 5.4428,-14.98682 14.9868,-14.98682 9.544,0 14.9868,5.44281 14.9868,14.98682 0,9.54401 -5.4428,14.98682 -14.9868,14.98682 -3.71,0 -6.4304,-0.61339 -8.3587,-1.88471 z m 32,0 c -4.6698,-3.07873 -6.6281,-6.94986 -6.6281,-13.10211 0,-9.54401 5.4428,-14.98682 14.9868,-14.98682 9.544,0 14.9868,5.44281 14.9868,14.98682 0,9.54401 -5.4428,14.98682 -14.9868,14.98682 -3.71,0 -6.4304,-0.61339 -8.3587,-1.88471 z m 32,0 c -4.6698,-3.07873 -6.6281,-6.94986 -6.6281,-13.10211 0,-9.54401 5.4428,-14.98682 14.9868,-14.98682 9.544,0 14.9868,5.44281 14.9868,14.98682 0,9.54401 -5.4428,14.98682 -14.9868,14.98682 -3.71,0 -6.4304,-0.61339 -8.3587,-1.88471 z m 32,0 c -4.6698,-3.07873 -6.6281,-6.94986 -6.6281,-13.10211 0,-9.54401 5.4428,-14.98682 14.9868,-14.98682 9.544,0 14.9868,5.44281 14.9868,14.98682 0,9.54401 -5.4428,14.98682 -14.9868,14.98682 -3.71,0 -6.4304,-0.61339 -8.3587,-1.88471 z m 32,0 c -4.6698,-3.07873 -6.6281,-6.94986 -6.6281,-13.10211 0,-9.54401 5.4428,-14.98682 14.9868,-14.98682 9.544,0 14.9868,5.44281 14.9868,14.98682 0,9.54401 -5.4428,14.98682 -14.9868,14.98682 -3.71,0 -6.4304,-0.61339 -8.3587,-1.88471 z m 32,0 c -4.6698,-3.07873 -6.6281,-6.94986 -6.6281,-13.10211 0,-9.54401 5.4428,-14.98682 14.9868,-14.98682 9.544,0 14.9868,5.44281 14.9868,14.98682 0,9.54401 -5.4428,14.98682 -14.9868,14.98682 -3.71,0 -6.4304,-0.61339 -8.3587,-1.88471 z m 32,0 c -4.6698,-3.07873 -6.6281,-6.94986 -6.6281,-13.10211 0,-9.54401 5.4428,-14.98682 14.9868,-14.98682 9.544,0 14.9868,5.44281 14.9868,14.98682 0,9.54401 -5.4428,14.98682 -14.9868,14.98682 -3.71,0 -6.4304,-0.61339 -8.3587,-1.88471 z m 32,0 c -4.6698,-3.07873 -6.6281,-6.94986 -6.6281,-13.10211 0,-9.54401 5.4428,-14.98682 14.9868,-14.98682 9.544,0 14.9868,5.44281 14.9868,14.98682 0,9.54401 -5.4428,14.98682 -14.9868,14.98682 -3.71,0 -6.4304,-0.61339 -8.3587,-1.88471 z m 32,0 c -4.6698,-3.07873 -6.6281,-6.94986 -6.6281,-13.10211 0,-9.54401 5.4428,-14.98682 14.9868,-14.98682 9.544,0 14.9868,5.44281 14.9868,14.98682 0,9.54401 -5.4428,14.98682 -14.9868,14.98682 -3.71,0 -6.4304,-0.61339 -8.3587,-1.88471 z m 32,0 c -4.6698,-3.07873 -6.6281,-6.94986 -6.6281,-13.10211 0,-9.54401 5.4428,-14.98682 14.9868,-14.98682 9.544,0 14.9868,5.44281 14.9868,14.98682 0,9.54401 -5.4428,14.98682 -14.9868,14.98682 -3.71,0 -6.4304,-0.61339 -8.3587,-1.88471 z m -2592.000003,-32 C 59.971513,102.02338 58.013178,98.152252 58.013178,92 c 0,-6.152252 1.958335,-10.023384 6.628119,-13.102114 3.889604,-2.564368 12.827802,-2.564368 16.717406,0 4.669784,3.07873 6.628119,6.949862 6.628119,13.102114 0,9.54401 -5.442808,14.98682 -14.986822,14.98682 -3.709991,0 -6.430383,-0.61339 -8.358703,-1.88471 z m 32,0 C 91.971513,102.02338 90.013178,98.152252 90.013178,92 c 0,-6.152252 1.958335,-10.023384 6.628119,-13.102114 3.889603,-2.564368 12.827803,-2.564368 16.717403,0 4.66979,3.07873 6.62812,6.949862 6.62812,13.102114 0,9.54401 -5.44281,14.98682 -14.98682,14.98682 -3.70999,0 -6.430383,-0.61339 -8.358703,-1.88471 z m 32.000003,0 C 123.97151,102.02338 122.01318,98.152252 122.01318,92 c 0,-6.152252 1.95833,-10.023384 6.62812,-13.102114 3.8896,-2.564368 12.8278,-2.564368 16.7174,0 4.66979,3.07873 6.62812,6.949862 6.62812,13.102114 0,9.54401 -5.44281,14.98682 -14.98682,14.98682 -3.70999,0 -6.43038,-0.61339 -8.3587,-1.88471 z m 32,0 C 155.97151,102.02338 154.01318,98.152252 154.01318,92 c 0,-9.544014 5.44281,-14.986822 14.98682,-14.986822 9.54401,0 14.98682,5.442808 14.98682,14.986822 0,9.54401 -5.44281,14.98682 -14.98682,14.98682 -3.70999,0 -6.43038,-0.61339 -8.3587,-1.88471 z m 32,0 C 187.97151,102.02338 186.01318,98.152252 186.01318,92 c 0,-9.544014 5.44281,-14.986822 14.98682,-14.986822 9.54401,0 14.98682,5.442808 14.98682,14.986822 0,9.54401 -5.44281,14.98682 -14.98682,14.98682 -3.70999,0 -6.43038,-0.61339 -8.3587,-1.88471 z m 32,0 C 219.97151,102.02338 218.01318,98.152252 218.01318,92 c 0,-9.544014 5.44281,-14.986822 14.98682,-14.986822 9.54401,0 14.98682,5.442808 14.98682,14.986822 0,9.54401 -5.44281,14.98682 -14.98682,14.98682 -3.70999,0 -6.43038,-0.61339 -8.3587,-1.88471 z m 32,0 C 251.97151,102.02338 250.01318,98.152252 250.01318,92 c 0,-9.544014 5.44281,-14.986822 14.98682,-14.986822 9.54401,0 14.98682,5.442808 14.98682,14.986822 0,9.54401 -5.44281,14.98682 -14.98682,14.98682 -3.70999,0 -6.43038,-0.61339 -8.3587,-1.88471 z m 32,0 C 283.97151,102.02338 282.01318,98.152252 282.01318,92 c 0,-9.544014 5.44281,-14.986822 14.98682,-14.986822 9.54401,0 14.98682,5.442808 14.98682,14.986822 0,9.54401 -5.44281,14.98682 -14.98682,14.98682 -3.70999,0 -6.43038,-0.61339 -8.3587,-1.88471 z m 32,0 C 315.97151,102.02338 314.01318,98.152252 314.01318,92 c 0,-9.544014 5.44281,-14.986822 14.98682,-14.986822 9.54401,0 14.98682,5.442808 14.98682,14.986822 0,9.54401 -5.44281,14.98682 -14.98682,14.98682 -3.70999,0 -6.43038,-0.61339 -8.3587,-1.88471 z m 96,0 C 411.97151,102.02338 410.01318,98.152252 410.01318,92 c 0,-9.544014 5.44281,-14.986822 14.98682,-14.986822 9.54401,0 14.98682,5.442808 14.98682,14.986822 0,9.54401 -5.44281,14.98682 -14.98682,14.98682 -3.70999,0 -6.43038,-0.61339 -8.3587,-1.88471 z m 32,0 C 443.97151,102.02338 442.01318,98.152252 442.01318,92 c 0,-9.544014 5.44281,-14.986822 14.98682,-14.986822 9.54401,0 14.98682,5.442808 14.98682,14.986822 0,9.54401 -5.44281,14.98682 -14.98682,14.98682 -3.70999,0 -6.43038,-0.61339 -8.3587,-1.88471 z m 96,0 C 539.97151,102.02338 538.01318,98.152252 538.01318,92 c 0,-9.544014 5.44281,-14.986822 14.98682,-14.986822 9.54401,0 14.98682,5.442808 14.98682,14.986822 0,9.54401 -5.44281,14.98682 -14.98682,14.98682 -3.70999,0 -6.43038,-0.61339 -8.3587,-1.88471 z m 31.65725,-0.0616 C 572.00797,102.4244 569.99922,98.199098 570.00374,91.79969 570.01049,82.221098 575.30095,77 585,77 c 9.78528,0 14.99252,5.209836 14.99252,15 0,6.454328 -2.39378,11.1219 -6.89864,13.45145 -4.26393,2.20496 -12.84961,1.99488 -16.79533,-0.41097 z m 32,0 C 604.00797,102.4244 601.99922,98.199098 602.00374,91.79969 602.01049,82.221098 607.30095,77 617,77 c 9.78528,0 14.99252,5.209836 14.99252,15 0,6.454328 -2.39378,11.1219 -6.89864,13.45145 -4.26393,2.20496 -12.84961,1.99488 -16.79533,-0.41097 z m 32,0 C 636.00797,102.4244 633.99922,98.199098 634.00374,91.79969 634.01049,82.221098 639.30095,77 649,77 c 9.78528,0 14.99252,5.209836 14.99252,15 0,6.454328 -2.39378,11.1219 -6.89864,13.45145 -4.26393,2.20496 -12.84961,1.99488 -16.79533,-0.41097 z m 32,0 C 668.00797,102.4244 665.99922,98.199098 666.00374,91.79969 666.01049,82.221098 671.30095,77 681,77 c 9.78528,0 14.99252,5.209836 14.99252,15 0,6.454328 -2.39378,11.1219 -6.89864,13.45145 -4.26393,2.20496 -12.84961,1.99488 -16.79533,-0.41097 z m 32,0 C 700.00797,102.4244 697.99922,98.199098 698.00374,91.79969 698.01049,82.221098 703.30095,77 713,77 c 9.78528,0 14.99252,5.209836 14.99252,15 0,6.454328 -2.39378,11.1219 -6.89864,13.45145 -4.26393,2.20496 -12.84961,1.99488 -16.79533,-0.41097 z m 32,0 C 732.00797,102.4244 729.99922,98.199098 730.00374,91.79969 730.01049,82.221098 735.30095,77 745,77 c 9.78528,0 14.99252,5.209836 14.99252,15 0,6.454328 -2.39378,11.1219 -6.89864,13.45145 -4.26393,2.20496 -12.84961,1.99488 -16.79533,-0.41097 z m 32,0 C 764.00797,102.4244 761.99922,98.199098 762.00374,91.79969 762.01049,82.221098 767.30095,77 777,77 c 9.78528,0 14.99252,5.209836 14.99252,15 0,6.454328 -2.39378,11.1219 -6.89864,13.45145 -4.26393,2.20496 -12.84961,1.99488 -16.79533,-0.41097 z m 32,0 C 796.00797,102.4244 793.99922,98.199098 794.00374,91.79969 794.01049,82.221098 799.30095,77 809,77 c 9.78528,0 14.99252,5.209836 14.99252,15 0,6.454328 -2.39378,11.1219 -6.89864,13.45145 -4.26393,2.20496 -12.84961,1.99488 -16.79533,-0.41097 z m 96,0 C 892.00797,102.4244 889.99922,98.199098 890.00374,91.79969 890.01049,82.221098 895.30095,77 905,77 c 9.78528,0 14.99252,5.209836 14.99252,15 0,6.454328 -2.39378,11.1219 -6.89864,13.45145 -4.26393,2.20496 -12.84961,1.99488 -16.79533,-0.41097 z m 32,0 C 924.00797,102.4244 921.99922,98.199098 922.00374,91.79969 922.01049,82.221098 927.30095,77 937,77 c 9.78528,0 14.99252,5.209836 14.99252,15 0,6.454328 -2.39378,11.1219 -6.89864,13.45145 -4.26393,2.20496 -12.84961,1.99488 -16.79533,-0.41097 z m 32,0 C 956.00797,102.4244 953.99922,98.199098 954.00374,91.79969 954.01049,82.221098 959.30095,77 969,77 c 9.78528,0 14.99252,5.209836 14.99252,15 0,6.454328 -2.39378,11.1219 -6.89864,13.45145 -4.26393,2.20496 -12.84961,1.99488 -16.79533,-0.41097 z m 32,0 C 988.00797,102.4244 985.99922,98.199098 986.00374,91.79969 986.01049,82.221098 991.30095,77 1001,77 c 9.7853,0 14.9925,5.209836 14.9925,15 0,6.454328 -2.3938,11.1219 -6.8986,13.45145 -4.2639,2.20496 -12.84963,1.99488 -16.79535,-0.41097 z m 31.99995,0 c -4.2905,-2.61611 -6.2993,-6.841412 -6.2948,-13.24082 C 1018.0105,82.221098 1023.301,77 1033,77 c 9.7853,0 14.9925,5.209836 14.9925,15 0,6.454328 -2.3938,11.1219 -6.8986,13.45145 -4.2639,2.20496 -12.8496,1.99488 -16.7954,-0.41097 z m 32,0 c -4.2905,-2.61611 -6.2993,-6.841412 -6.2948,-13.24082 C 1050.0105,82.221098 1055.301,77 1065,77 c 9.7853,0 14.9925,5.209836 14.9925,15 0,6.454328 -2.3938,11.1219 -6.8986,13.45145 -4.2639,2.20496 -12.8496,1.99488 -16.7954,-0.41097 z m 32,0 c -4.2905,-2.61611 -6.2993,-6.841412 -6.2948,-13.24082 C 1082.0105,82.221098 1087.301,77 1097,77 c 9.7853,0 14.9925,5.209836 14.9925,15 0,6.454328 -2.3938,11.1219 -6.8986,13.45145 -4.2639,2.20496 -12.8496,1.99488 -16.7954,-0.41097 z m 32,0 c -4.2905,-2.61611 -6.2993,-6.841412 -6.2948,-13.24082 C 1114.0105,82.221098 1119.301,77 1129,77 c 9.7853,0 14.9925,5.209836 14.9925,15 0,6.454328 -2.3938,11.1219 -6.8986,13.45145 -4.2639,2.20496 -12.8496,1.99488 -16.7954,-0.41097 z m 96,0 c -4.2905,-2.61611 -6.2993,-6.841412 -6.2948,-13.24082 C 1210.0105,82.221098 1215.301,77 1225,77 c 9.7853,0 14.9925,5.209836 14.9925,15 0,6.454328 -2.3938,11.1219 -6.8986,13.45145 -4.2639,2.20496 -12.8496,1.99488 -16.7954,-0.41097 z m 32,0 c -4.2905,-2.61611 -6.2993,-6.841412 -6.2948,-13.24082 C 1242.0105,82.221098 1247.301,77 1257,77 c 9.7853,0 14.9925,5.209836 14.9925,15 0,6.454328 -2.3938,11.1219 -6.8986,13.45145 -4.2639,2.20496 -12.8496,1.99488 -16.7954,-0.41097 z m 32,0 c -4.2905,-2.61611 -6.2993,-6.841412 -6.2948,-13.24082 C 1274.0105,82.221098 1279.301,77 1289,77 c 9.7853,0 14.9925,5.209836 14.9925,15 0,6.454328 -2.3938,11.1219 -6.8986,13.45145 -4.2639,2.20496 -12.8496,1.99488 -16.7954,-0.41097 z m 32,0 c -4.2905,-2.61611 -6.2993,-6.841412 -6.2948,-13.24082 C 1306.0105,82.221098 1311.301,77 1321,77 c 9.7853,0 14.9925,5.209836 14.9925,15 0,6.454328 -2.3938,11.1219 -6.8986,13.45145 -4.2639,2.20496 -12.8496,1.99488 -16.7954,-0.41097 z m 32,0 c -4.2905,-2.61611 -6.2993,-6.841412 -6.2948,-13.24082 C 1338.0105,82.221098 1343.301,77 1353,77 c 9.7853,0 14.9925,5.209836 14.9925,15 0,6.454328 -2.3938,11.1219 -6.8986,13.45145 -4.2639,2.20496 -12.8496,1.99488 -16.7954,-0.41097 z m 32,0 c -4.2905,-2.61611 -6.2993,-6.841412 -6.2948,-13.24082 C 1370.0105,82.221098 1375.301,77 1385,77 c 9.7853,0 14.9925,5.209836 14.9925,15 0,6.454328 -2.3938,11.1219 -6.8986,13.45145 -4.2639,2.20496 -12.8496,1.99488 -16.7954,-0.41097 z m 32,0 c -4.2905,-2.61611 -6.2993,-6.841412 -6.2948,-13.24082 C 1402.0105,82.221098 1407.301,77 1417,77 c 9.7853,0 14.9925,5.209836 14.9925,15 0,6.454328 -2.3938,11.1219 -6.8986,13.45145 -4.2639,2.20496 -12.8496,1.99488 -16.7954,-0.41097 z m 32,0 c -4.2905,-2.61611 -6.2993,-6.841412 -6.2948,-13.24082 C 1434.0105,82.221098 1439.301,77 1449,77 c 9.7853,0 14.9925,5.209836 14.9925,15 0,6.454328 -2.3938,11.1219 -6.8986,13.45145 -4.2639,2.20496 -12.8496,1.99488 -16.7954,-0.41097 z m 32,0 c -4.2905,-2.61611 -6.2993,-6.841412 -6.2948,-13.24082 C 1466.0105,82.221098 1471.301,77 1481,77 c 9.7853,0 14.9925,5.209836 14.9925,15 0,6.454328 -2.3938,11.1219 -6.8986,13.45145 -4.2639,2.20496 -12.8496,1.99488 -16.7954,-0.41097 z m 96,0 c -4.2905,-2.61611 -6.2993,-6.841412 -6.2948,-13.24082 C 1562.0105,82.221098 1567.301,77 1577,77 c 9.7853,0 14.9925,5.209836 14.9925,15 0,6.454328 -2.3938,11.1219 -6.8986,13.45145 -4.2639,2.20496 -12.8496,1.99488 -16.7954,-0.41097 z m 32,0 c -4.2905,-2.61611 -6.2993,-6.841412 -6.2948,-13.24082 C 1594.0105,82.221098 1599.301,77 1609,77 c 9.7853,0 14.9925,5.209836 14.9925,15 0,6.454328 -2.3938,11.1219 -6.8986,13.45145 -4.2639,2.20496 -12.8496,1.99488 -16.7954,-0.41097 z m 96,0 c -4.2905,-2.61611 -6.2993,-6.841412 -6.2948,-13.24082 C 1690.0105,82.221098 1695.301,77 1705,77 c 9.7853,0 14.9925,5.209836 14.9925,15 0,6.454328 -2.3938,11.1219 -6.8986,13.45145 -4.2639,2.20496 -12.8496,1.99488 -16.7954,-0.41097 z m 32,0 c -4.2905,-2.61611 -6.2993,-6.841412 -6.2948,-13.24082 C 1722.0105,82.221098 1727.301,77 1737,77 c 9.7853,0 14.9925,5.209836 14.9925,15 0,6.454328 -2.3938,11.1219 -6.8986,13.45145 -4.2639,2.20496 -12.8496,1.99488 -16.7954,-0.41097 z m 32,0 c -4.2905,-2.61611 -6.2993,-6.841412 -6.2948,-13.24082 C 1754.0105,82.221098 1759.301,77 1769,77 c 9.7853,0 14.9925,5.209836 14.9925,15 0,6.454328 -2.3938,11.1219 -6.8986,13.45145 -4.2639,2.20496 -12.8496,1.99488 -16.7954,-0.41097 z m 32,0 c -4.2905,-2.61611 -6.2993,-6.841412 -6.2948,-13.24082 C 1786.0105,82.221098 1791.301,77 1801,77 c 9.7853,0 14.9925,5.209836 14.9925,15 0,6.454328 -2.3938,11.1219 -6.8986,13.45145 -4.2639,2.20496 -12.8496,1.99488 -16.7954,-0.41097 z m 32,0 c -4.2905,-2.61611 -6.2993,-6.841412 -6.2948,-13.24082 C 1818.0105,82.221098 1823.301,77 1833,77 c 9.7853,0 14.9925,5.209836 14.9925,15 0,6.454328 -2.3938,11.1219 -6.8986,13.45145 -4.2639,2.20496 -12.8496,1.99488 -16.7954,-0.41097 z m 32,0 c -4.2905,-2.61611 -6.2993,-6.841412 -6.2948,-13.24082 C 1850.0105,82.221098 1855.301,77 1865,77 c 9.7853,0 14.9925,5.209836 14.9925,15 0,6.454328 -2.3938,11.1219 -6.8986,13.45145 -4.2639,2.20496 -12.8496,1.99488 -16.7954,-0.41097 z m 32,0 c -4.2905,-2.61611 -6.2993,-6.841412 -6.2948,-13.24082 C 1882.0105,82.221098 1887.301,77 1897,77 c 9.7853,0 14.9925,5.209836 14.9925,15 0,6.454328 -2.3938,11.1219 -6.8986,13.45145 -4.2639,2.20496 -12.8496,1.99488 -16.7954,-0.41097 z m 32,0 c -4.2905,-2.61611 -6.2993,-6.841412 -6.2948,-13.24082 C 1914.0105,82.221098 1919.301,77 1929,77 c 9.7853,0 14.9925,5.209836 14.9925,15 0,6.454328 -2.3938,11.1219 -6.8986,13.45145 -4.2639,2.20496 -12.8496,1.99488 -16.7954,-0.41097 z m 96,0 c -4.2905,-2.61611 -6.2993,-6.841412 -6.2948,-13.24082 C 2010.0105,82.221098 2015.301,77 2025,77 c 9.7853,0 14.9925,5.209836 14.9925,15 0,6.454328 -2.3938,11.1219 -6.8986,13.45145 -4.2639,2.20496 -12.8496,1.99488 -16.7954,-0.41097 z m 32,0 c -4.2905,-2.61611 -6.2993,-6.841412 -6.2948,-13.24082 C 2042.0105,82.221098 2047.301,77 2057,77 c 9.7853,0 14.9925,5.209836 14.9925,15 0,6.454328 -2.3938,11.1219 -6.8986,13.45145 -4.2639,2.20496 -12.8496,1.99488 -16.7954,-0.41097 z m 32,0 c -4.2905,-2.61611 -6.2993,-6.841412 -6.2948,-13.24082 C 2074.0105,82.221098 2079.301,77 2089,77 c 9.7853,0 14.9925,5.209836 14.9925,15 0,6.454328 -2.3938,11.1219 -6.8986,13.45145 -4.2639,2.20496 -12.8496,1.99488 -16.7954,-0.41097 z m 32.3428,0.0616 c -4.6698,-3.07873 -6.6281,-6.949858 -6.6281,-13.10211 0,-9.544014 5.4428,-14.986822 14.9868,-14.986822 9.544,0 14.9868,5.442808 14.9868,14.986822 0,9.54401 -5.4428,14.98682 -14.9868,14.98682 -3.71,0 -6.4304,-0.61339 -8.3587,-1.88471 z m 32,0 c -4.6698,-3.07873 -6.6281,-6.949858 -6.6281,-13.10211 0,-9.544014 5.4428,-14.986822 14.9868,-14.986822 9.544,0 14.9868,5.442808 14.9868,14.986822 0,9.54401 -5.4428,14.98682 -14.9868,14.98682 -3.71,0 -6.4304,-0.61339 -8.3587,-1.88471 z m 32,0 c -4.6698,-3.07873 -6.6281,-6.949858 -6.6281,-13.10211 0,-9.544014 5.4428,-14.986822 14.9868,-14.986822 9.544,0 14.9868,5.442808 14.9868,14.986822 0,9.54401 -5.4428,14.98682 -14.9868,14.98682 -3.71,0 -6.4304,-0.61339 -8.3587,-1.88471 z m 32,0 c -4.6698,-3.07873 -6.6281,-6.949858 -6.6281,-13.10211 0,-9.544014 5.4428,-14.986822 14.9868,-14.986822 9.544,0 14.9868,5.442808 14.9868,14.986822 0,9.54401 -5.4428,14.98682 -14.9868,14.98682 -3.71,0 -6.4304,-0.61339 -8.3587,-1.88471 z m 32,0 c -4.6698,-3.07873 -6.6281,-6.949858 -6.6281,-13.10211 0,-9.544014 5.4428,-14.986822 14.9868,-14.986822 9.544,0 14.9868,5.442808 14.9868,14.986822 0,9.54401 -5.4428,14.98682 -14.9868,14.98682 -3.71,0 -6.4304,-0.61339 -8.3587,-1.88471 z m 32,0 c -4.6698,-3.07873 -6.6281,-6.949858 -6.6281,-13.10211 0,-9.544014 5.4428,-14.986822 14.9868,-14.986822 9.544,0 14.9868,5.442808 14.9868,14.986822 0,9.54401 -5.4428,14.98682 -14.9868,14.98682 -3.71,0 -6.4304,-0.61339 -8.3587,-1.88471 z m 96,0 c -4.6698,-3.07873 -6.6281,-6.949858 -6.6281,-13.10211 0,-9.544014 5.4428,-14.986822 14.9868,-14.986822 9.544,0 14.9868,5.442808 14.9868,14.986822 0,9.54401 -5.4428,14.98682 -14.9868,14.98682 -3.71,0 -6.4304,-0.61339 -8.3587,-1.88471 z m 32,0 c -4.6698,-3.07873 -6.6281,-6.949858 -6.6281,-13.10211 0,-9.544014 5.4428,-14.986822 14.9868,-14.986822 9.544,0 14.9868,5.442808 14.9868,14.986822 0,9.54401 -5.4428,14.98682 -14.9868,14.98682 -3.71,0 -6.4304,-0.61339 -8.3587,-1.88471 z m 32,0 c -4.6698,-3.07873 -6.6281,-6.949858 -6.6281,-13.10211 0,-9.544014 5.4428,-14.986822 14.9868,-14.986822 9.544,0 14.9868,5.442808 14.9868,14.986822 0,9.54401 -5.4428,14.98682 -14.9868,14.98682 -3.71,0 -6.4304,-0.61339 -8.3587,-1.88471 z m 32,0 c -4.6698,-3.07873 -6.6281,-6.949858 -6.6281,-13.10211 0,-9.544014 5.4428,-14.986822 14.9868,-14.986822 9.544,0 14.9868,5.442808 14.9868,14.986822 0,9.54401 -5.4428,14.98682 -14.9868,14.98682 -3.71,0 -6.4304,-0.61339 -8.3587,-1.88471 z m 32,0 c -4.6698,-3.07873 -6.6281,-6.949858 -6.6281,-13.10211 0,-9.544014 5.4428,-14.986822 14.9868,-14.986822 9.544,0 14.9868,5.442808 14.9868,14.986822 0,9.54401 -5.4428,14.98682 -14.9868,14.98682 -3.71,0 -6.4304,-0.61339 -8.3587,-1.88471 z m 32,0 c -4.6698,-3.07873 -6.6281,-6.949858 -6.6281,-13.10211 0,-9.544014 5.4428,-14.986822 14.9868,-14.986822 9.544,0 14.9868,5.442808 14.9868,14.986822 0,9.54401 -5.4428,14.98682 -14.9868,14.98682 -3.71,0 -6.4304,-0.61339 -8.3587,-1.88471 z m 32,0 c -4.6698,-3.07873 -6.6281,-6.949858 -6.6281,-13.10211 0,-9.544014 5.4428,-14.986822 14.9868,-14.986822 9.544,0 14.9868,5.442808 14.9868,14.986822 0,9.54401 -5.4428,14.98682 -14.9868,14.98682 -3.71,0 -6.4304,-0.61339 -8.3587,-1.88471 z m 32,0 c -4.6698,-3.07873 -6.6281,-6.949858 -6.6281,-13.10211 0,-9.544014 5.4428,-14.986822 14.9868,-14.986822 9.544,0 14.9868,5.442808 14.9868,14.986822 0,9.54401 -5.4428,14.98682 -14.9868,14.98682 -3.71,0 -6.4304,-0.61339 -8.3587,-1.88471 z m 32,0 c -4.6698,-3.07873 -6.6281,-6.949858 -6.6281,-13.10211 0,-9.544014 5.4428,-14.986822 14.9868,-14.986822 9.544,0 14.9868,5.442808 14.9868,14.986822 0,9.54401 -5.4428,14.98682 -14.9868,14.98682 -3.71,0 -6.4304,-0.61339 -8.3587,-1.88471 z m 32,0 c -4.6698,-3.07873 -6.6281,-6.949858 -6.6281,-13.10211 0,-9.544014 5.4428,-14.986822 14.9868,-14.986822 9.544,0 14.9868,5.442808 14.9868,14.986822 0,9.54401 -5.4428,14.98682 -14.9868,14.98682 -3.71,0 -6.4304,-0.61339 -8.3587,-1.88471 z"
     id="path7941"
     inkscape:connector-curvature="0" />
</svg>
