<?xml version="1.0" encoding="UTF-8" standalone="no"?>
<!-- Generator: Adobe Illustrator 16.0.0, SVG Export Plug-In . SVG Version: 6.00 Build 0)  -->

<svg
   xmlns:dc="http://purl.org/dc/elements/1.1/"
   xmlns:cc="http://creativecommons.org/ns#"
   xmlns:rdf="http://www.w3.org/1999/02/22-rdf-syntax-ns#"
   xmlns:svg="http://www.w3.org/2000/svg"
   xmlns="http://www.w3.org/2000/svg"
   xmlns:sodipodi="http://sodipodi.sourceforge.net/DTD/sodipodi-0.dtd"
   xmlns:inkscape="http://www.inkscape.org/namespaces/inkscape"
   version="1.1"
   id="Layer_1"
   x="0px"
   y="0px"
   width="765"
   height="990"
   viewBox="0 0 765 990"
   enable-background="new 0 0 448 392"
   xml:space="preserve"
   inkscape:version="0.48.4 r9939"
   sodipodi:docname="blinky-logo.svg"><metadata
     id="metadata3225"><rdf:RDF><cc:Work
         rdf:about=""><dc:format>image/svg+xml</dc:format><dc:type
           rdf:resource="http://purl.org/dc/dcmitype/StillImage" /><dc:title /></cc:Work></rdf:RDF></metadata><defs
     id="defs3223"><inkscape:perspective
       sodipodi:type="inkscape:persp3d"
       inkscape:vp_x="0 : 0.5 : 1"
       inkscape:vp_y="0 : 1000 : 0"
       inkscape:vp_z="1 : 0.5 : 1"
       inkscape:persp3d-origin="0.5 : 0.33333333 : 1"
       id="perspective2830" /><inkscape:perspective
       id="perspective2845"
       inkscape:persp3d-origin="372.04724 : 350.78739 : 1"
       inkscape:vp_z="744.09448 : 526.18109 : 1"
       inkscape:vp_y="0 : 1000 : 0"
       inkscape:vp_x="0 : 526.18109 : 1"
       sodipodi:type="inkscape:persp3d" /><inkscape:perspective
       sodipodi:type="inkscape:persp3d"
       inkscape:vp_x="0 : 526.18109 : 1"
       inkscape:vp_y="0 : 1000 : 0"
       inkscape:vp_z="744.09448 : 526.18109 : 1"
       inkscape:persp3d-origin="372.04724 : 350.78739 : 1"
       id="perspective2845-8" /><inkscape:perspective
       id="perspective2830-3"
       inkscape:persp3d-origin="0.5 : 0.33333333 : 1"
       inkscape:vp_z="1 : 0.5 : 1"
       inkscape:vp_y="0 : 1000 : 0"
       inkscape:vp_x="0 : 0.5 : 1"
       sodipodi:type="inkscape:persp3d" /></defs><sodipodi:namedview
     pagecolor="#ffffff"
     bordercolor="#666666"
     borderopacity="1"
     objecttolerance="10"
     gridtolerance="10"
     guidetolerance="10"
     inkscape:pageopacity="0"
     inkscape:pageshadow="2"
     inkscape:window-width="1024"
     inkscape:window-height="712"
     id="namedview3221"
     showgrid="false"
     inkscape:zoom="0.52020202"
     inkscape:cx="382.5"
     inkscape:cy="495"
     inkscape:window-x="0"
     inkscape:window-y="0"
     inkscape:window-maximized="0"
     inkscape:current-layer="layer2"
     units="pt" /><g
     inkscape:groupmode="layer"
     id="layer1"
     inkscape:label="Interior"
     style="display:inline"
     transform="translate(0,598.0001)" /><g
     inkscape:groupmode="layer"
     id="layer2"
     inkscape:label="Cover"
     style="display:inline"
     transform="translate(0,598.0001)"><path
       id="path4415"
       style="fill:none;stroke:#ff0000;stroke-width:0.89007443;stroke-linecap:square;stroke-miterlimit:4;stroke-opacity:1;stroke-dasharray:none;stroke-dashoffset:0;display:inline"
       d="m 148.85288,-187.2923 c -4.0714,-70.19046 0.3707,-141.94921 -0.94246,-211.4308 0,-15.49267 0,-30.9853 0,-46.47798 30.99094,16.68569 54.52048,26.84338 88.30972,36.44111 l -0.44707,-26.05346 c -43.08677,-12.72075 -75.11901,-28.4484 -112.85922,-53.15513 0,7.22551 0,14.45108 0,21.67665 3.17979,91.4262 -5.02332,187.49311 1.02852,280.60964 z m 502.53845,-1.76812 c 1.53457,-26.96161 1.03395,-54.0484 -1.59713,-80.96926 0,-72.64634 0,-145.2927 0,-217.93888 -40.58757,26.58263 -75.97293,43.61962 -122.63418,56.32996 l -0.69773,26.02944 c 37.36665,-9.77703 64.27413,-21.23275 98.33538,-39.59192 0,69.3915 0,138.78318 0,208.17465 1.02229,15.99285 1.20439,31.99324 0.57805,47.93724 z M 275.90867,123.90664 C 244.20604,89.139316 217.43621,49.675646 196.92709,7.4710892 169.31121,-44.738091 156.67327,-103.12562 151.12605,-160.30403 l -24.96384,1.96437 c 6.84058,69.512995 23.16088,136.937306 59.8543,199.047776 19.64856,36.9159 44.82691,71.238674 73.47085,102.068884 z m 159.59875,150.80707 c -2.72395,21.12673 -15.81362,40.74012 -39.19387,43.84726 -32.06543,8.43195 -55.50533,-17.65593 -59.28088,-45.86793 l 24.44285,-0.47388 c 2.40683,13.25347 13.00981,25.02696 29.56534,21.14997 11.76129,-2.02285 18.32886,-9.74156 20.39354,-18.61788 z m 0.44117,-11.88993 c -0.8287,-15.28101 -7.06583,-29.89247 -18.73974,-38.19515 27.71508,-17.68151 55.20279,-40.07735 78.46862,-62.8432 L 478.71676,143.5136 c -27.42871,26.84237 -58.11623,50.511 -91.58187,70.17903 -31.74388,-18.17288 -63.82931,-45.57845 -90.51299,-71.0699 l -17.59732,20.13259 c 23.99193,23.32076 49.89748,44.29262 76.66936,62.45916 -12.71707,9.22053 -18.62496,23.08681 -19.15627,37.39451 l 24.62274,0.24765 c 1.24826,-10.60341 8.14912,-20.01751 21.8735,-20.84759 16.07233,-2.14891 26.16539,8.50924 28.56432,20.71361 z m 80.57465,-122.93323 c 73.7242,-82.424154 120.09387,-189.192042 132.42127,-299.87414 l -24.39898,-0.80478 C 614.72124,-55.93852 569.93236,43.718456 499.93871,121.39682 z m -51.09027,-559.96902 c -61.88203,11.15031 -105.74052,11.49042 -167.4178,-0.7867 l 0.93589,25.75345 c 61.88998,11.8075 104.25512,11.32255 166.28619,0.33681 z"
       inkscape:connector-curvature="0"
       sodipodi:nodetypes="ccccccccccccccccccccccccccccccccccccccccccccccccccccccc" /><path
       style="fill:none;stroke:#ff0000;stroke-width:0.89007443;stroke-miterlimit:4;stroke-opacity:1;stroke-dasharray:none;display:inline"
       d="m 257.73915,-559.40103 20.91504,0 c 2.69264,0 4.86036,1.88805 4.86036,4.23329 l 0,157.59636 -30.63576,-7.32986 0,-150.2665 c 0,-2.34524 2.16772,-4.23329 4.86036,-4.23329 z"
       id="rect4421"
       inkscape:connector-curvature="0"
       sodipodi:nodetypes="sssccss" /><path
       style="fill:none;stroke:#ff0000;stroke-width:0.89007443;stroke-miterlimit:4;stroke-opacity:1;stroke-dasharray:none;display:inline"
       d="m 486.48619,-559.40103 20.91504,0 c 2.69271,0 4.86039,1.88805 4.86039,4.23329 l 0,153.04578 -30.63575,6.02905 0,-159.07483 c 0,-2.34524 2.16767,-4.23329 4.86032,-4.23329 z"
       id="rect4423"
       inkscape:connector-curvature="0"
       sodipodi:nodetypes="sssccss" /></g><g
     inkscape:groupmode="layer"
     id="layer3"
     inkscape:label="Testing"
     style="display:inline"
     transform="translate(0,598.0001)"><g
       id="g3349"
       transform="matrix(3.7315895,0,0,3.7315895,-127.22038,-28.381438)"><g
         id="g6213"
         transform="matrix(0.32963971,0,0,0.28546537,104.83788,-47.288554)"
         style="fill:none;stroke:#ff0000;stroke-width:0.77756363;stroke-miterlimit:4;stroke-opacity:1;stroke-dasharray:none"><path
           id="path6215"
           d="m 44.8,12.28 c 23.6,-8.7 36.89,8.96 57.26,10.38 15.04,1.04 30.341,-3.2 44.65,-2.47 27.3,1.39 50.87,18 49.58,49.07 -1.41,34 -32.89573,42.76 -69.04573,41.6 -0.63,-10.32 0.84,-13.97 0.27,-23.9 22.07,-0.14 48.99573,0.93 40.86573,-25.6 C 166.14,54.06 156.21,48.16 148.8,46.35 116.6,38.51 65.66,64.18 40.21,50.92 34.87,48.13 29.16,40.44 25.33,39.67 16.02,37.78 7.56,44.71 3.07,43.98 7.87,37.82 6.53,29.65 2.64,23.18 c 7.48,1.35 10.83,6.53 19.37,4.99 7.75,-1.39 14.45,-12.81 22.79,-15.89 z"
           inkscape:connector-curvature="0"
           style="fill:none;stroke:#ff0000;stroke-width:0.77756363;stroke-miterlimit:4;stroke-opacity:1;stroke-dasharray:none"
           sodipodi:nodetypes="cccccccccccccc" /><path
           id="path6217"
           d="m 129.81,171.61 c -28.21,-2.75 -58.22,6.35 -81.79,-4.46 -5.86,-2.69 -13.28,-8.46 -16.48,-14.311 -17.49,-31.89 9.53,-60.47 39.52,-64.02 6.33,-0.75 8.065733,0.2 15.945733,-0.42 -1.26,6.05 0.5,16.94 -1.03,24.69 -18.37,-0.58 -37.265733,2.45 -33.255733,20.81 2.28,10.43 12.7,14.13 24.21,14.92 24.129,1.65 54.72,-8 78.7,3.76 19.8,9.71 27.26,39.96 14.29,57.51 -8.07,10.92 -18.57573,13.76 -42.60473,15.62 -0.15,-7.45 -0.311,-14.9 -0.461,-22.35 11.641,-0.49 23.53573,-1.53 24.93673,-12.931 C 153.5,176.47 136.41,172.26 129.81,171.61 z"
           inkscape:connector-curvature="0"
           style="fill:none;stroke:#ff0000;stroke-width:0.77756363;stroke-miterlimit:4;stroke-opacity:1;stroke-dasharray:none"
           sodipodi:nodetypes="ccccccccsccccc" /><path
           id="path6219"
           d="m 85.985733,224.85 c -9.06,0.62 -12.915733,2.32 -16.555733,8.141 -3.87,18.76 18.15,19.37 33.56,20.109 24.2,1.17 49.16,0.311 53.649,22.78 -35.46,-11.03 -113.97,12.65 -111.84,-40.84 0.94,-23.48 15.475733,-30.16 41.525733,-31.01 0.041,9.35 0.531,15.14 -0.339,20.82 z"
           inkscape:connector-curvature="0"
           style="fill:none;stroke:#ff0000;stroke-width:0.77756363;stroke-miterlimit:4;stroke-opacity:1;stroke-dasharray:none"
           sodipodi:nodetypes="ccccccc" /></g><path
         sodipodi:nodetypes="cccccccccccccccc"
         inkscape:connector-curvature="0"
         id="path6221"
         d="m 140.01571,-87.223047 c 4.58468,0 8.44502,2.689216 9.57409,6.337912 l 0.0179,0 0,23.366524 3.36933,0 0,4.512259 -25.91447,0 0,-4.512259 3.37854,0 0,-23.318679 -0.008,0 c 0.002,-0.01005 0.005,-0.02144 0.008,-0.03182 l 0,-0.01507 0.008,0 c 1.12911,-3.648678 4.98025,-6.337912 9.56488,-6.337912 z"
         style="fill:none;stroke:#ff0000;stroke-width:0.2385242;stroke-miterlimit:4;stroke-opacity:1;stroke-dasharray:none" /><path
         sodipodi:nodetypes="ccccccccccccccccccccccccccccccccccccccccc"
         inkscape:connector-curvature="0"
         id="path6223"
         d="m 142.17585,-7.1034205 0,-24.8140035 2.31135,-0.28199 0,24.8895433 z m 0,30.4513775 0,-19.707151 2.31135,0 0,19.758774 z m 2.31135,9.092634 0,13.86847 -2.31135,0 0,-13.971694 z m -6.53447,-84.140315 0,1.89224 0.86207,0 0,4.8629 -0.86207,0 c 0,0.891733 0,2.045488 0,2.937221 l -2.31126,-0.330009 c 0,-0.768299 0,-1.838901 0,-2.607199 l -1.43701,0 0,-4.8629 1.43701,0 0,-1.89224 z m 6.53449,1.3e-5 0,1.89224 1.34815,0 0,4.8629 -1.34815,0 0,2.539346 -2.31143,0.129133 0,-2.668489 -0.74796,0 0,-4.8629 0.74796,0 0,-1.89224 z"
         style="fill:none;stroke:#ff0000;stroke-width:0.2385242;stroke-miterlimit:4;stroke-opacity:1;stroke-dasharray:none" /><path
         sodipodi:nodetypes="ccccccccccccccc"
         inkscape:connector-curvature="0"
         id="path6225"
         d="m 135.64139,23.141508 0,-19.2942518 2.31134,-0.103226 0,19.3458768 z m 2.31134,9.092633 0,3.442118 -2.31134,0 0,-3.493741 z m -2.31134,-39.0278837 0,-24.1559593 2.31134,-0.384554 0,24.3340614 z"
         style="fill:none;stroke:#ff0000;stroke-width:0.2385242;stroke-miterlimit:4;stroke-opacity:1;stroke-dasharray:none" /></g></g></svg>