<?xml version="1.0" encoding="UTF-8" standalone="no"?>
<!-- Generator: Adobe Illustrator 16.0.0, SVG Export Plug-In . SVG Version: 6.00 Build 0)  -->

<svg
   xmlns:dc="http://purl.org/dc/elements/1.1/"
   xmlns:cc="http://creativecommons.org/ns#"
   xmlns:rdf="http://www.w3.org/1999/02/22-rdf-syntax-ns#"
   xmlns:svg="http://www.w3.org/2000/svg"
   xmlns="http://www.w3.org/2000/svg"
   xmlns:sodipodi="http://sodipodi.sourceforge.net/DTD/sodipodi-0.dtd"
   xmlns:inkscape="http://www.inkscape.org/namespaces/inkscape"
   version="1.1"
   id="Layer_1"
   x="0px"
   y="0px"
   width="109.48819"
   height="178.1339"
   viewBox="0 0 109.48819 178.13389"
   enable-background="new 0 0 448 392"
   xml:space="preserve"
   inkscape:version="0.48.4 r9939"
   sodipodi:docname="snake-throwie.svg"><metadata
     id="metadata3225"><rdf:RDF><cc:Work
         rdf:about=""><dc:format>image/svg+xml</dc:format><dc:type
           rdf:resource="http://purl.org/dc/dcmitype/StillImage" /><dc:title /></cc:Work></rdf:RDF></metadata><defs
     id="defs3223"><inkscape:perspective
       sodipodi:type="inkscape:persp3d"
       inkscape:vp_x="0 : 0.5 : 1"
       inkscape:vp_y="0 : 1000 : 0"
       inkscape:vp_z="1 : 0.5 : 1"
       inkscape:persp3d-origin="0.5 : 0.33333333 : 1"
       id="perspective2830" /><inkscape:perspective
       id="perspective2845"
       inkscape:persp3d-origin="372.04724 : 350.78739 : 1"
       inkscape:vp_z="744.09448 : 526.18109 : 1"
       inkscape:vp_y="0 : 1000 : 0"
       inkscape:vp_x="0 : 526.18109 : 1"
       sodipodi:type="inkscape:persp3d" /><inkscape:perspective
       sodipodi:type="inkscape:persp3d"
       inkscape:vp_x="0 : 526.18109 : 1"
       inkscape:vp_y="0 : 1000 : 0"
       inkscape:vp_z="744.09448 : 526.18109 : 1"
       inkscape:persp3d-origin="372.04724 : 350.78739 : 1"
       id="perspective2845-8" /><inkscape:perspective
       id="perspective2830-3"
       inkscape:persp3d-origin="0.5 : 0.33333333 : 1"
       inkscape:vp_z="1 : 0.5 : 1"
       inkscape:vp_y="0 : 1000 : 0"
       inkscape:vp_x="0 : 0.5 : 1"
       sodipodi:type="inkscape:persp3d" /></defs><sodipodi:namedview
     pagecolor="#ffffff"
     bordercolor="#666666"
     borderopacity="1"
     objecttolerance="10"
     gridtolerance="10"
     guidetolerance="10"
     inkscape:pageopacity="0"
     inkscape:pageshadow="2"
     inkscape:window-width="1024"
     inkscape:window-height="712"
     id="namedview3221"
     showgrid="false"
     inkscape:zoom="2.8910839"
     inkscape:cx="54.744092"
     inkscape:cy="89.066948"
     inkscape:window-x="0"
     inkscape:window-y="0"
     inkscape:window-maximized="0"
     inkscape:current-layer="layer2"
     units="pt"
     fit-margin-top="0"
     fit-margin-left="0"
     fit-margin-right="0"
     fit-margin-bottom="0" /><g
     inkscape:groupmode="layer"
     id="layer3"
     inkscape:label="Outside"
     style="display:inline"
     transform="translate(-0.6667711,596.69768)"><path
       sodipodi:nodetypes="sscccccccccccsssscccscccsss"
       inkscape:connector-curvature="0"
       id="path3273"
       d="m 25.261239,-596.59279 c -0.433667,0 -0.7801,0.34631 -0.7801,0.78005 l 0,13.63782 2.881069,1.78483 0,19.93996 c -6.852044,-2.18927 -14.549027,-5.65729 -26.41849591,-11.0525 l 0,47.97777 c -3.73038709,78.9021 54.43652391,104.85618 54.43652391,104.85618 0,0 58.877634,-27.02999 54.429964,-104.85618 l 0,-47.97777 c -12.544782,5.70217 -20.427019,9.25108 -27.578807,11.41305 l 0,-20.987 3.006937,-1.37294 0,-13.36322 c 0,-0.43367 -0.346433,-0.78005 -0.7801,-0.78005 l -13.853474,0 c -0.433667,0 -0.786655,0.34638 -0.786655,0.78005 l 0,13.50052 2.88107,1.64753 0,22.38442 c -5.461632,0.97288 -9.307559,1.29142 -17.318935,1.29142 -8.58037,0 -12.686202,-0.36392 -18.485807,-1.50775 l 0,-22.16809 3.006937,-1.64753 0,-13.50052 c 0,-0.43367 -0.352987,-0.78005 -0.786654,-0.78005 z"
       style="fill:none;stroke:#ff0000;stroke-width:0.20977469px;stroke-linecap:butt;stroke-linejoin:miter;stroke-opacity:1" /><path
       transform="matrix(1.8516825,0,0,1.8516825,-29.333803,-611.1673)"
       d="m 35.811332,12.175992 c 0,1.447175 -1.173167,2.620341 -2.620342,2.620341 -1.447174,0 -2.620341,-1.173166 -2.620341,-2.620341 0,-1.447175 1.173167,-2.6203413 2.620341,-2.6203413 1.447175,0 2.620342,1.1731663 2.620342,2.6203413 z"
       sodipodi:ry="2.6203413"
       sodipodi:rx="2.6203413"
       sodipodi:cy="12.175992"
       sodipodi:cx="33.19099"
       id="path3021"
       style="fill:none;stroke:#00ff00;stroke-width:0.5;stroke-miterlimit:4;stroke-opacity:1;stroke-dasharray:none"
       sodipodi:type="arc" /><path
       sodipodi:type="arc"
       style="fill:none;stroke:#00ff00;stroke-width:0.5;stroke-miterlimit:4;stroke-opacity:1;stroke-dasharray:none"
       id="path3791"
       sodipodi:cx="33.19099"
       sodipodi:cy="12.175992"
       sodipodi:rx="2.6203413"
       sodipodi:ry="2.6203413"
       d="m 35.811332,12.175992 c 0,1.447175 -1.173167,2.620341 -2.620342,2.620341 -1.447174,0 -2.620341,-1.173166 -2.620341,-2.620341 0,-1.447175 1.173167,-2.6203413 2.620341,-2.6203413 1.447175,0 2.620342,1.1731663 2.620342,2.6203413 z"
       transform="matrix(1.8516825,0,0,1.8516825,15.836373,-611.1673)" /></g><g
     inkscape:groupmode="layer"
     id="layer1"
     inkscape:label="Logo"
     style="display:inline"
     transform="translate(-0.6667711,-1.3024234)"><g
       id="g6213"
       transform="matrix(0.25803963,0,0,0.22346027,27.661401,85.582)"
       style="fill:#000000;stroke:none;display:inline"><path
         id="path6215"
         d="m 44.8,12.28 c 23.6,-8.7 36.89,8.96 57.26,10.38 15.04,1.04 30.341,-3.2 44.65,-2.47 27.3,1.39 50.87,18 49.58,49.07 -1.41,34 -28.90559,42.76 -65.05559,41.6 -0.63,-10.32 0.84,-13.97 0.27,-23.9 22.07,-0.14 45.00559,0.93 36.87559,-25.6 C 166.14,54.06 156.21,48.16 148.8,46.35 116.6,38.51 65.66,64.18 40.21,50.92 34.87,48.13 29.16,40.44 25.33,39.67 16.02,37.78 7.56,44.71 3.07,43.98 7.87,37.82 6.53,29.65 2.64,23.18 c 7.48,1.35 10.83,6.53 19.37,4.99 7.75,-1.39 14.45,-12.81 22.79,-15.89 z"
         inkscape:connector-curvature="0"
         style="fill:#000000;stroke:none"
         sodipodi:nodetypes="cccccccccccccc" /><path
         id="path6217"
         d="m 129.81,171.61 c -28.21,-2.75 -58.22,6.35 -81.79,-4.46 -5.86,-2.69 -13.28,-8.46 -16.48,-14.311 -17.49,-31.89 9.53,-60.47 39.52,-64.02 6.33,-0.75 8.065733,0.2 15.945733,-0.42 -1.26,6.05 0.5,16.94 -1.03,24.69 -18.37,-0.58 -37.265733,2.45 -33.255733,20.81 2.28,10.43 12.7,14.13 24.21,14.92 24.129,1.65 54.72,-8 78.7,3.76 19.8,9.71 27.26,39.96 14.29,57.51 -8.07,10.92 -15.15561,13.76 -39.18461,15.62 -0.15,-7.45 -0.311,-14.9 -0.461,-22.35 11.641,-0.49 20.11561,-1.53 21.51661,-12.931 C 153.5,176.47 136.41,172.26 129.81,171.61 z"
         inkscape:connector-curvature="0"
         style="fill:#000000;stroke:none"
         sodipodi:nodetypes="ccccccccsccccc" /><path
         id="path6219"
         d="m 85.985733,224.85 c -9.06,0.62 -12.915733,2.32 -16.555733,8.141 -3.87,18.76 18.15,19.37 33.56,20.109 24.2,1.17 49.16,0.311 53.649,22.78 -35.46,-11.03 -113.97,12.65 -111.84,-40.84 0.94,-23.48 15.475733,-30.16 41.525733,-31.01 0.041,9.35 0.531,15.14 -0.339,20.82 z"
         inkscape:connector-curvature="0"
         style="fill:#000000;stroke:none"
         sodipodi:nodetypes="ccccccc" /></g><path
       style="fill:#000000;stroke:none;display:inline"
       d="m 50.657293,79.09375 0,4.53125 -1.125,0 0,3.78125 1.125,0 -0.119122,3.381518 2.784822,0.25 0.119122,-3.631518 0.6875,0 0,-3.78125 -0.6875,0 0,-4.53125 4.25,0 0,4.53125 -0.59375,0 0,3.78125 0.59375,0 -0.02337,1.846812 2.645536,-0.09375 0.02337,-1.753062 1.0625,0 0,-3.78125 -1.0625,0 0,-4.53125"
       id="path6221"
       inkscape:connector-curvature="0"
       sodipodi:nodetypes="cccccccccccccccccccccccc" /><path
       style="fill:#000000;stroke:none;display:inline"
       d="m 57.918914,116.66764 0,-19.47288 1.809308,-0.22074 0,19.53201 z"
       id="path3801"
       inkscape:connector-curvature="0"
       sodipodi:nodetypes="ccccc" /><path
       style="fill:#000000;stroke:none;display:inline"
       d="m 57.918914,140.87576 0,-17.27574 1.809308,0 0,17.31615 z"
       id="path3799"
       inkscape:connector-curvature="0"
       sodipodi:nodetypes="ccccc" /><path
       style="fill:#000000;stroke:none;display:inline"
       d="m 59.728222,147.99341 0,10.85614 -1.809308,0 0,-10.93695 z"
       id="path3797"
       inkscape:connector-curvature="0" /><path
       sodipodi:nodetypes="ccccccccccccccc"
       inkscape:connector-curvature="0"
       id="path6225"
       d="m 51.774171,140.71416 0,-15.10341 1.8093,-0.0808 0,15.14381 z m 1.8093,7.11764 0,2.69447 -1.8093,0 0,-2.73487 z m -1.8093,-30.55075 0,-28.875474 1.8093,-0.30103 0,29.014894 z"
       style="fill:#000000;stroke:none;display:inline" /><path
       sodipodi:nodetypes="scccccccccccs"
       inkscape:connector-curvature="0"
       id="path3862"
       d="m 55.410865,48.125 c -3.662586,0 -7.035472,2.415395 -7.9375,5.71875 l 0,0.03125 c -0.0024,0.0094 0.0016,0.02215 0,0.03125 l 0,21.09375 -2.40625,0 0,4.09375 20.6875,0 0,-4.09375 -2.34375,0 0,-21.15625 0.0861,0 C 62.594964,50.540388 59.073498,48.125 55.410865,48.125 z"
       style="fill:none;stroke:#00ff00;stroke-width:0.1;stroke-miterlimit:4;stroke-dasharray:none;display:inline" /><path
       style="fill:none;stroke:#000000;stroke-width:3.54330707;stroke-linecap:butt;stroke-linejoin:miter;stroke-miterlimit:4;stroke-opacity:1;stroke-dasharray:none;display:inline"
       d="m 4.78125,32.40635 c 0.8497431,20.04 -0.6477882,40.19241 0.34375,60.25 2.3939255,32.40517 19.494592,64.63637 48.34375,81.03125 4.386975,2.25083 8.229108,-3.62635 12.05703,-5.40301 28.013139,-20.86162 42.73194,-56.38447 40.38822,-91.00321 -0.0612,-14.82275 -0.19749,-29.6459 -0.1015,-44.46878 -19.435029,9.95041 -41.646392,14.38711 -63.4375,11.59375 -13.043742,-1.55707 -26.370031,-5.7056 -37.59375,-12 z"
       id="path3885"
       inkscape:connector-curvature="0" /></g><g
     inkscape:groupmode="layer"
     id="layer2"
     inkscape:label="Battery"
     style="display:inline"
     transform="translate(-0.6667711,-1.3024234)"><rect
       style="fill:#000000;fill-opacity:1;stroke:none"
       id="rect3894"
       width="5.1883659"
       height="7.483336"
       x="56.701122"
       y="88.121078" /><path
       sodipodi:type="arc"
       style="fill:none;stroke:#00ff00;stroke-width:0.08931378;stroke-miterlimit:4;stroke-opacity:1;stroke-dasharray:none;display:inline"
       id="path3304"
       sodipodi:cx="63.543274"
       sodipodi:cy="119.82835"
       sodipodi:rx="31.225733"
       sodipodi:ry="31.225733"
       d="m 94.769007,119.82835 a 31.225733,31.225733 0 1 1 -62.451466,0 31.225733,31.225733 0 1 1 62.451466,0 z"
       transform="matrix(1.1327125,0,0,1.1327227,-16.156689,-7.3051764)" /><path
       style="fill:none;stroke:#00ff00;stroke-width:0.1;stroke-miterlimit:4;stroke-opacity:1;stroke-dasharray:none;display:inline"
       d="m 53.474024,79.08367 3.589113,0 0.149748,9.947378 4.28125,0 -0.07117,-9.947378 4.876015,0 0,-4.09375 -2.34375,0 0,-21.15625 0.01005,0 c -0.901991,-3.303362 -4.777263,-5.71875 -8.439896,-5.71875 -3.662586,0 -7.551286,2.415395 -8.453314,5.71875 l 0,0.03125 c -0.0024,0.0094 0.0016,0.02215 0,0.03125 l 0,21.09375 -2.40625,0 0,4.09375 5.542427,0 0.09375,12.875 -20.339113,0.21875 -0.09375,2.96875 23.604889,-0.46875 0,-2.93514 z"
       id="path3804"
       inkscape:connector-curvature="0"
       sodipodi:nodetypes="ccccccccccsccccccccccccc" /><rect
       style="fill:none;stroke:#00ff00;stroke-width:0.1;stroke-miterlimit:4;stroke-opacity:1;stroke-dasharray:none"
       id="rect3852"
       width="34.703552"
       height="9.9004002"
       x="121.56778"
       y="-19.588408"
       rx="1.4131109"
       ry="1.5064677"
       transform="matrix(0.52322528,0.85219441,-0.85219441,0.52322528,0,0)" /></g></svg>